<svg id="Capa_1" data-name="Capa 1" xmlns="http://www.w3.org/2000/svg" xmlns:xlink="http://www.w3.org/1999/xlink" viewBox="0 0 1335.86 445.67"><defs><style>.cls-1,.cls-12,.cls-8{fill:none;}.cls-10,.cls-11,.cls-14,.cls-2,.cls-3,.cls-4,.cls-5,.cls-6{fill:#c3ff00;}.cls-2{opacity:0.8;}.cls-3{opacity:0.6;}.cls-4{opacity:0.5;}.cls-5{opacity:0.4;}.cls-6{opacity:0.3;}.cls-7{clip-path:url(#clip-path);}.cls-8{stroke:#fff;}.cls-12,.cls-8{stroke-width:1.45px;}.cls-9{clip-path:url(#clip-path-2);}.cls-10{opacity:0.7;}.cls-12{stroke:#f4f4f4;}.cls-13{fill:#fff;}.cls-14{opacity:0.9;}</style><clipPath id="clip-path" transform="translate(-292 -343.33)"><rect class="cls-1" x="292" y="343.34" width="1336" height="445.8"/></clipPath><clipPath id="clip-path-2" transform="translate(-292 -343.33)"><rect class="cls-1" x="292" y="290.86" width="1336" height="445.8"/></clipPath></defs><g id="Grupo_11742" data-name="Grupo 11742"><path id="Trazado_12368" data-name="Trazado 12368" class="cls-2" d="M997.11,490.33H492.46v38.32H997.11Z" transform="translate(-292 -343.33)"/><path id="Trazado_12369" data-name="Trazado 12369" class="cls-3" d="M791.91,594.18H492.46V632.5H791.91Z" transform="translate(-292 -343.33)"/><path id="Trazado_12370" data-name="Trazado 12370" class="cls-4" d="M776.78,646.11H492.46v38.32H776.78Z" transform="translate(-292 -343.33)"/><path id="Trazado_12371" data-name="Trazado 12371" class="cls-5" d="M714.13,698H492.46v38.32H714.13Z" transform="translate(-292 -343.33)"/><path id="Trazado_12372" data-name="Trazado 12372" class="cls-6" d="M492.46,788.27H619.94V750H492.46Z" transform="translate(-292 -343.33)"/><g class="cls-7"><g id="Grupo_11478" data-name="Grupo 11478"><path id="Trazado_12373" data-name="Trazado 12373" class="cls-8" d="M619.94,750H492.46v38.31H619.94Z" transform="translate(-292 -343.33)"/></g></g><g class="cls-9"><g id="Grupo_11478-2" data-name="Grupo 11478"><path id="Trazado_12373-2" data-name="Trazado 12373" class="cls-8" d="M714.13,698H492.46v38.32H714.13Z" transform="translate(-292 -343.33)"/></g></g><path id="Trazado_12375" data-name="Trazado 12375" class="cls-10" d="M965.33,542.26H492.46v38.32H965.33Z" transform="translate(-292 -343.33)"/><path id="Trazado_12376" data-name="Trazado 12376" class="cls-11" d="M1627.13,386.48H492.46V424.8H1627.13Z" transform="translate(-292 -343.33)"/><g class="cls-7"><g id="Grupo_11481" data-name="Grupo 11481"><path id="Trazado_12377" data-name="Trazado 12377" class="cls-12" d="M1627.13,386.48H492.46V424.8H1627.13Z" transform="translate(-292 -343.33)"/><g id="Grupo_11479" data-name="Grupo 11479"><path id="Trazado_12378" data-name="Trazado 12378" class="cls-13" d="M309.22,405.55a1.24,1.24,0,0,0,1.17,1.32h.13c.85,0,1.31-.53,1.31-1.51v-6.7h2v6.71a3,3,0,0,1-2.74,3.27,2.9,2.9,0,0,1-.59,0,3,3,0,0,1-3.29-2.68,2.67,2.67,0,0,1,0-.4Z" transform="translate(-292 -343.33)"/></g><g id="Grupo_11480" data-name="Grupo 11480"><path id="Trazado_12379" data-name="Trazado 12379" class="cls-13" d="M317.62,404.77a1.89,1.89,0,0,0,1.71,2.07,1.93,1.93,0,0,0,.34,0,1.9,1.9,0,0,0,2.05-1.74,1.82,1.82,0,0,0,0-.33v-6.11h2V405c0,2.15-1.59,3.62-4.09,3.62s-4.1-1.47-4.1-3.62v-6.32h2.05Z" transform="translate(-292 -343.33)"/></g></g></g><g id="Grupo_11482" data-name="Grupo 11482"><path id="Trazado_12381" data-name="Trazado 12381" class="cls-13" d="M330.84,406.06H327.4l-.74,2.37h-2.1l3.39-9.77h2.4l3.4,9.77h-2.17Zm-3-1.53h2.55l-1.25-4h-.05Z" transform="translate(-292 -343.33)"/></g><g id="Grupo_11483" data-name="Grupo 11483"><path id="Trazado_12382" data-name="Trazado 12382" class="cls-13" d="M334.75,408.43v-9.77h1.71L341,405h.05v-6.36h2v9.77h-1.69l-4.57-6.4h-.06v6.4Z" transform="translate(-292 -343.33)"/></g><g class="cls-7"><g id="Grupo_11485" data-name="Grupo 11485"><g id="Grupo_11484" data-name="Grupo 11484"><path id="Trazado_12383" data-name="Trazado 12383" class="cls-13" d="M349,405.65c.09.8.93,1.33,2,1.33s1.83-.52,1.83-1.24-.46-1-1.64-1.25l-1.28-.28c-1.8-.39-2.68-1.3-2.68-2.73,0-1.8,1.55-3,3.73-3s3.7,1.17,3.74,2.94h-1.91c-.07-.83-.8-1.33-1.82-1.33s-1.69.48-1.69,1.21.48.94,1.6,1.2l1.19.25c2,.42,2.81,1.26,2.81,2.75,0,1.89-1.54,3.09-4,3.09s-3.85-1.12-3.91-3Z" transform="translate(-292 -343.33)"/></g></g></g><g id="Grupo_11486" data-name="Grupo 11486"><path id="Trazado_12385" data-name="Trazado 12385" class="cls-13" d="M361.6,406.06h-3.43l-.75,2.37h-2.1l3.39-9.77h2.4l3.4,9.77h-2.16Zm-3-1.53h2.55l-1.25-4h-.05Z" transform="translate(-292 -343.33)"/></g><g id="Grupo_11487" data-name="Grupo 11487"><path id="Trazado_12386" data-name="Trazado 12386" class="cls-13" d="M365.51,408.43v-9.77h1.71l4.56,6.36h.06v-6.36h2v9.77h-1.7l-4.57-6.4h-.06v6.4Z" transform="translate(-292 -343.33)"/></g><g class="cls-7"><g id="Grupo_11489" data-name="Grupo 11489"><g id="Grupo_11488" data-name="Grupo 11488"><path id="Trazado_12387" data-name="Trazado 12387" class="cls-13" d="M375.11,403.54c0-3.15,1.8-5.05,4.63-5.05a4,4,0,0,1,4.29,3.68h-2a2.26,2.26,0,0,0-2.3-2c-1.54,0-2.54,1.3-2.54,3.36s1,3.37,2.55,3.37a2.22,2.22,0,0,0,2.3-1.87h2a4,4,0,0,1-4.3,3.56c-2.84,0-4.63-1.9-4.63-5.06" transform="translate(-292 -343.33)"/></g></g></g><g id="Grupo_11490" data-name="Grupo 11490"><path id="Trazado_12389" data-name="Trazado 12389" class="cls-13" d="M391.74,408.43v-4.12h-4.4v4.12h-2v-9.77h2v4h4.4v-4h2.05v9.77Z" transform="translate(-292 -343.33)"/></g><g id="Grupo_11491" data-name="Grupo 11491"><path id="Trazado_12390" data-name="Trazado 12390" class="cls-13" d="M401.89,408.43h-6.48v-9.77h6.48v1.68h-4.43v2.36h4.17v1.57h-4.17v2.47h4.43Z" transform="translate(-292 -343.33)"/></g><g class="cls-7"><g id="Grupo_11493" data-name="Grupo 11493"><g id="Grupo_11492" data-name="Grupo 11492"><path id="Trazado_12391" data-name="Trazado 12391" class="cls-13" d="M405,405.65c.09.8.93,1.33,2,1.33s1.84-.52,1.84-1.24-.47-1-1.65-1.25l-1.27-.28c-1.8-.39-2.69-1.3-2.69-2.73,0-1.8,1.56-3,3.74-3s3.7,1.17,3.74,2.94h-1.92c-.07-.83-.79-1.33-1.81-1.33s-1.69.48-1.69,1.21.48.94,1.6,1.2l1.19.25c1.95.42,2.81,1.26,2.81,2.75,0,1.89-1.54,3.09-4,3.09s-3.84-1.12-3.9-3Z" transform="translate(-292 -343.33)"/></g></g></g><g id="Grupo_11494" data-name="Grupo 11494"><path id="Trazado_12393" data-name="Trazado 12393" class="cls-13" d="M423.38,408.43v-6.6h-.05l-2.66,6.5h-1.28l-2.66-6.5h-.05v6.6h-1.82v-9.77h2.37l2.77,6.93h.06l2.77-6.93h2.37v9.77Z" transform="translate(-292 -343.33)"/></g><path id="Trazado_12394" data-name="Trazado 12394" class="cls-13" d="M426.83,398.66h2v9.77h-2Z" transform="translate(-292 -343.33)"/><g class="cls-7"><g id="Grupo_11499" data-name="Grupo 11499"><g id="Grupo_11495" data-name="Grupo 11495"><path id="Trazado_12395" data-name="Trazado 12395" class="cls-13" d="M430.5,408.43v-9.77h1.71l4.56,6.36h.05v-6.36h2v9.77h-1.69l-4.57-6.4h-.07v6.4Zm3.31-11.5c-.31,0-.47.33-.47.83h-1.08c0-1.2.65-1.86,1.49-1.86s1.31.92,1.79.92c.3,0,.46-.3.47-.84h1.08c0,1.17-.67,1.87-1.49,1.87s-1.29-.92-1.79-.92" transform="translate(-292 -343.33)"/></g><g id="Grupo_11496" data-name="Grupo 11496"><path id="Trazado_12396" data-name="Trazado 12396" class="cls-13" d="M449.52,403.55c0,3.11-1.82,5.05-4.71,5.05s-4.71-1.94-4.71-5.05,1.81-5.06,4.71-5.06,4.71,1.94,4.71,5.06m-7.34,0c0,2,1,3.34,2.63,3.34s2.62-1.3,2.62-3.34-1-3.35-2.62-3.35-2.63,1.3-2.63,3.35" transform="translate(-292 -343.33)"/></g><g id="Grupo_11497" data-name="Grupo 11497"><path id="Trazado_12397" data-name="Trazado 12397" class="cls-13" d="M456,398.66h1.81a10.78,10.78,0,0,0,0,11.87H456a8.8,8.8,0,0,1-2-5.94,8.71,8.71,0,0,1,2-5.93" transform="translate(-292 -343.33)"/></g><g id="Grupo_11498" data-name="Grupo 11498"><path id="Trazado_12398" data-name="Trazado 12398" class="cls-13" d="M461.13,402.69h1.19a1.4,1.4,0,0,0,1.55-1.23s0-.09,0-.13c0-.8-.57-1.32-1.58-1.32a1.5,1.5,0,0,0-1.63,1.35v.07h-1.88c.07-1.81,1.48-3,3.6-3s3.41,1.05,3.41,2.61a2.28,2.28,0,0,1-2,2.28v0a2.34,2.34,0,0,1,2.4,2.27v.09c0,1.75-1.59,2.92-3.85,2.92s-3.65-1.21-3.74-3h1.95c.07.83.74,1.37,1.82,1.37s1.74-.58,1.74-1.4-.67-1.44-1.78-1.44h-1.2Z" transform="translate(-292 -343.33)"/></g></g></g><g id="Grupo_11500" data-name="Grupo 11500"><path id="Trazado_12400" data-name="Trazado 12400" class="cls-13" d="M469.93,400.53h0l-2.49,1.73v-1.85l2.52-1.75h2v9.77h-2Z" transform="translate(-292 -343.33)"/></g><g class="cls-7"><g id="Grupo_11503" data-name="Grupo 11503"><g id="Grupo_11501" data-name="Grupo 11501"><path id="Trazado_12401" data-name="Trazado 12401" class="cls-13" d="M475.51,410.53h-1.82a10.78,10.78,0,0,0,0-11.87h1.82a9.81,9.81,0,0,1,0,11.87" transform="translate(-292 -343.33)"/></g><g id="Grupo_11502" data-name="Grupo 11502"><path id="Trazado_12402" data-name="Trazado 12402" class="cls-13" d="M1024.11,409.36v-.87c-2.13-.12-3.42-1.19-3.43-2.85h1.94a1.49,1.49,0,0,0,1.49,1.31v-2.64l-.72-.17c-1.63-.38-2.5-1.32-2.5-2.73,0-1.65,1.19-2.72,3.22-2.89v-.92h1v.93c1.9.17,3.12,1.28,3.15,2.84h-1.89a1.38,1.38,0,0,0-1.26-1.28v2.53l.73.14c1.73.38,2.6,1.28,2.6,2.75,0,1.72-1.2,2.79-3.33,3v.88Zm0-6.94v-2.33a1.22,1.22,0,0,0-1.27,1.15c0,.6.44,1,1.27,1.18m1,2.06V407c.89,0,1.41-.52,1.41-1.23s-.45-1.06-1.41-1.25" transform="translate(-292 -343.33)"/></g></g></g><g id="Grupo_11504" data-name="Grupo 11504"><path id="Trazado_12404" data-name="Trazado 12404" class="cls-13" d="M1034.9,400.53h0l-2.49,1.73v-1.85l2.52-1.75h2v9.77h-2Z" transform="translate(-292 -343.33)"/></g><g class="cls-7"><g id="Grupo_11522" data-name="Grupo 11522"><g id="Grupo_11505" data-name="Grupo 11505"><path id="Trazado_12405" data-name="Trazado 12405" class="cls-13" d="M1039.09,407.42a1.08,1.08,0,0,1,1.07-1.09h0a1.08,1.08,0,0,1,1.09,1.08h0a1.09,1.09,0,0,1-1.09,1.09h0a1.08,1.08,0,0,1-1.09-1.08h0" transform="translate(-292 -343.33)"/></g><g id="Grupo_11506" data-name="Grupo 11506"><path id="Trazado_12406" data-name="Trazado 12406" class="cls-13" d="M1042.66,405.78a2.56,2.56,0,0,1,2.3-2.5v0a2.3,2.3,0,0,1-1.9-2.22c0-1.48,1.47-2.58,3.57-2.58s3.56,1.09,3.56,2.59a2.32,2.32,0,0,1-1.9,2.21v0a2.56,2.56,0,0,1,2.3,2.51c0,1.69-1.62,2.85-4,2.85s-4-1.17-4-2.86m5.79-.15a1.63,1.63,0,0,0-1.72-1.53h-.1a1.63,1.63,0,0,0-1.82,1.42.38.38,0,0,0,0,.1,1.63,1.63,0,0,0,1.72,1.54h.11a1.64,1.64,0,0,0,1.81-1.42.41.41,0,0,1,0-.11m-.29-4.36a1.41,1.41,0,0,0-1.45-1.36h-.08a1.4,1.4,0,0,0-1.54,1.26.28.28,0,0,0,0,.09,1.4,1.4,0,0,0,1.44,1.36h.11a1.4,1.4,0,0,0,1.53-1.26v-.09" transform="translate(-292 -343.33)"/></g><g id="Grupo_11507" data-name="Grupo 11507"><path id="Trazado_12407" data-name="Trazado 12407" class="cls-13" d="M1051.67,403.53c0-3.16,1.51-5.09,4-5.09s3.94,1.93,3.94,5.08-1.48,5.13-3.94,5.13-4-2-4-5.12m5.83,0c0-2.21-.71-3.45-1.87-3.45s-1.88,1.25-1.88,3.45.71,3.48,1.88,3.48,1.87-1.26,1.87-3.48" transform="translate(-292 -343.33)"/></g><g id="Grupo_11508" data-name="Grupo 11508"><path id="Trazado_12408" data-name="Trazado 12408" class="cls-13" d="M1060.7,403.53c0-3.16,1.51-5.09,4-5.09s3.95,1.93,3.95,5.08-1.49,5.13-3.95,5.13-4-2-4-5.12m5.82,0c0-2.21-.71-3.45-1.87-3.45s-1.87,1.25-1.87,3.45.71,3.48,1.87,3.48,1.87-1.26,1.87-3.48" transform="translate(-292 -343.33)"/></g><g id="Grupo_11509" data-name="Grupo 11509"><path id="Trazado_12409" data-name="Trazado 12409" class="cls-13" d="M1069.66,407.42a1.09,1.09,0,0,1,1.08-1.09h0a1.08,1.08,0,0,1,1.09,1.08h0a1.08,1.08,0,0,1-1.08,1.09h0a1.09,1.09,0,0,1-1.09-1.08h0" transform="translate(-292 -343.33)"/></g><g id="Grupo_11510" data-name="Grupo 11510"><path id="Trazado_12410" data-name="Trazado 12410" class="cls-13" d="M1073,403.53c0-3.16,1.51-5.09,4-5.09s4,1.93,4,5.08-1.49,5.13-4,5.13-4-2-4-5.12m5.82,0c0-2.21-.71-3.45-1.87-3.45s-1.88,1.25-1.88,3.45.72,3.48,1.88,3.48,1.87-1.26,1.87-3.48" transform="translate(-292 -343.33)"/></g><g id="Grupo_11511" data-name="Grupo 11511"><path id="Trazado_12411" data-name="Trazado 12411" class="cls-13" d="M1082.06,403.53c0-3.16,1.51-5.09,4-5.09s3.94,1.93,3.94,5.08-1.49,5.13-3.94,5.13-4-2-4-5.12m5.83,0c0-2.21-.72-3.45-1.87-3.45s-1.88,1.25-1.88,3.45.71,3.48,1.88,3.48,1.87-1.26,1.87-3.48" transform="translate(-292 -343.33)"/></g><g id="Grupo_11512" data-name="Grupo 11512"><path id="Trazado_12412" data-name="Trazado 12412" class="cls-13" d="M1091.09,403.53c0-3.16,1.51-5.09,4-5.09s4,1.93,4,5.08-1.49,5.13-4,5.13-4-2-4-5.12m5.82,0c0-2.21-.71-3.45-1.87-3.45s-1.88,1.25-1.88,3.45.72,3.48,1.88,3.48,1.87-1.26,1.87-3.48" transform="translate(-292 -343.33)"/></g><g id="Grupo_11513" data-name="Grupo 11513"><path id="Trazado_12413" data-name="Trazado 12413" class="cls-13" d="M714.26,512.85V512c-2.12-.12-3.42-1.19-3.42-2.84h1.93a1.51,1.51,0,0,0,1.49,1.31v-2.64l-.71-.17c-1.64-.38-2.5-1.32-2.5-2.73,0-1.66,1.19-2.73,3.22-2.89v-.93h1V502c1.9.17,3.12,1.28,3.14,2.84h-1.88a1.37,1.37,0,0,0-1.26-1.27v2.52l.72.14c1.74.38,2.6,1.28,2.6,2.75,0,1.72-1.2,2.79-3.32,3v.87Zm0-6.93v-2.34a1.21,1.21,0,0,0-1.26,1.16c0,.6.44,1,1.26,1.17m1,2.06v2.48c.89-.05,1.41-.51,1.41-1.23s-.45-1.06-1.41-1.25" transform="translate(-292 -343.33)"/></g><g id="Grupo_11514" data-name="Grupo 11514"><path id="Trazado_12414" data-name="Trazado 12414" class="cls-13" d="M722.48,509.27a2.56,2.56,0,0,1,2.3-2.5v0a2.3,2.3,0,0,1-1.9-2.21c0-1.49,1.48-2.58,3.57-2.58S730,503,730,504.52a2.29,2.29,0,0,1-1.9,2.21v0a2.55,2.55,0,0,1,2.3,2.51c0,1.69-1.61,2.86-4,2.86s-4-1.17-4-2.87m5.78-.14a1.62,1.62,0,0,0-1.71-1.54h-.11a1.64,1.64,0,0,0-1.82,1.42.31.31,0,0,1,0,.1,1.65,1.65,0,0,0,1.73,1.54h.1a1.62,1.62,0,0,0,1.81-1.42.37.37,0,0,0,0-.11m-.27-4.36a1.42,1.42,0,0,0-1.46-1.36h-.09a1.4,1.4,0,0,0-1.53,1.26.31.31,0,0,0,0,.1,1.4,1.4,0,0,0,1.44,1.35h.1a1.4,1.4,0,0,0,1.54-1.26s0-.06,0-.08" transform="translate(-292 -343.33)"/></g><g id="Grupo_11515" data-name="Grupo 11515"><path id="Trazado_12415" data-name="Trazado 12415" class="cls-13" d="M731.49,507c0-3.16,1.51-5.09,4-5.09s3.94,1.93,3.94,5.08-1.48,5.13-3.94,5.13-4-2-4-5.12m5.83,0c0-2.21-.71-3.45-1.87-3.45s-1.88,1.25-1.88,3.45.71,3.48,1.88,3.48,1.87-1.25,1.87-3.48" transform="translate(-292 -343.33)"/></g><g id="Grupo_11516" data-name="Grupo 11516"><path id="Trazado_12416" data-name="Trazado 12416" class="cls-13" d="M740.52,507c0-3.16,1.51-5.09,4-5.09s3.95,1.93,3.95,5.08-1.49,5.13-3.95,5.13-4-2-4-5.12m5.82,0c0-2.21-.71-3.45-1.87-3.45s-1.87,1.25-1.87,3.45.71,3.48,1.87,3.48,1.87-1.25,1.87-3.48" transform="translate(-292 -343.33)"/></g><g id="Grupo_11517" data-name="Grupo 11517"><path id="Trazado_12417" data-name="Trazado 12417" class="cls-13" d="M749.48,510.91a1.1,1.1,0,0,1,1.07-1.09h0a1.08,1.08,0,0,1,1.09,1.08h0a1.09,1.09,0,0,1-1.09,1.09h0a1.08,1.08,0,0,1-1.09-1.08h0" transform="translate(-292 -343.33)"/></g><g id="Grupo_11518" data-name="Grupo 11518"><path id="Trazado_12418" data-name="Trazado 12418" class="cls-13" d="M752.86,507c0-3.16,1.51-5.09,3.95-5.09s4,1.93,4,5.08-1.49,5.13-4,5.13-3.95-2-3.95-5.12m5.82,0c0-2.21-.71-3.45-1.87-3.45s-1.88,1.25-1.88,3.45.71,3.48,1.88,3.48,1.87-1.25,1.87-3.48" transform="translate(-292 -343.33)"/></g><g id="Grupo_11519" data-name="Grupo 11519"><path id="Trazado_12419" data-name="Trazado 12419" class="cls-13" d="M761.88,507c0-3.16,1.51-5.09,4-5.09s3.95,1.93,3.95,5.08-1.49,5.13-3.95,5.13-4-2-4-5.12m5.82,0c0-2.21-.71-3.45-1.87-3.45S764,504.82,764,507s.71,3.48,1.87,3.48,1.87-1.25,1.87-3.48" transform="translate(-292 -343.33)"/></g><g id="Grupo_11520" data-name="Grupo 11520"><path id="Trazado_12420" data-name="Trazado 12420" class="cls-13" d="M770.9,507c0-3.16,1.51-5.09,4-5.09s3.94,1.93,3.94,5.08-1.48,5.13-3.94,5.13-4-2-4-5.12m5.83,0c0-2.21-.71-3.45-1.87-3.45S773,504.82,773,507s.71,3.48,1.88,3.48,1.87-1.25,1.87-3.48" transform="translate(-292 -343.33)"/></g><g id="Grupo_11521" data-name="Grupo 11521"><path id="Trazado_12421" data-name="Trazado 12421" class="cls-13" d="M699.09,564.77v-.86c-2.13-.13-3.42-1.2-3.43-2.85h1.94a1.49,1.49,0,0,0,1.49,1.31v-2.64l-.72-.17c-1.63-.38-2.5-1.32-2.5-2.73,0-1.66,1.19-2.73,3.22-2.89V553h1V554c1.9.17,3.11,1.28,3.14,2.83H701.3a1.38,1.38,0,0,0-1.26-1.27V558l.73.14c1.73.38,2.6,1.28,2.6,2.75,0,1.72-1.2,2.79-3.33,3v.87Zm0-6.93V555.5a1.23,1.23,0,0,0-1.27,1.16c0,.6.44,1,1.27,1.18m.95,2.06v2.48c.89-.06,1.41-.52,1.41-1.24s-.45-1-1.41-1.24" transform="translate(-292 -343.33)"/></g></g></g><g id="Grupo_11523" data-name="Grupo 11523"><path id="Trazado_12423" data-name="Trazado 12423" class="cls-13" d="M712.15,555.74v0h-5v-1.62h7v1.64l-4.08,8.13h-2.15Z" transform="translate(-292 -343.33)"/></g><g class="cls-7"><g id="Grupo_11532" data-name="Grupo 11532"><g id="Grupo_11524" data-name="Grupo 11524"><path id="Trazado_12424" data-name="Trazado 12424" class="cls-13" d="M715.46,561.05h1.89a1.69,1.69,0,0,0,1.79,1.4,1.72,1.72,0,0,0,1.81-1.64v-.17a1.74,1.74,0,0,0-1.64-1.84h-.15a1.91,1.91,0,0,0-1.71.9h-1.84l.49-5.62h6.21v1.62H717.7l-.22,2.68h0a2.41,2.41,0,0,1,2.17-1.07,3.11,3.11,0,0,1,3.21,3v.23a3.46,3.46,0,0,1-3.41,3.5l-.36,0c-2.1,0-3.61-1.25-3.67-3" transform="translate(-292 -343.33)"/></g><g id="Grupo_11525" data-name="Grupo 11525"><path id="Trazado_12425" data-name="Trazado 12425" class="cls-13" d="M723.91,558.94c0-3.15,1.51-5.09,4-5.09s3.95,1.93,3.95,5.09-1.49,5.12-3.95,5.12-4-1.95-4-5.12m5.82,0c0-2.2-.71-3.45-1.87-3.45s-1.87,1.25-1.87,3.45.71,3.48,1.87,3.48,1.87-1.25,1.87-3.48" transform="translate(-292 -343.33)"/></g><g id="Grupo_11526" data-name="Grupo 11526"><path id="Trazado_12426" data-name="Trazado 12426" class="cls-13" d="M732.87,562.84a1.08,1.08,0,0,1,1.07-1.09h0a1.08,1.08,0,0,1,1.09,1.08h0a1.08,1.08,0,0,1-1.08,1.09h0a1.09,1.09,0,0,1-1.09-1.08h0" transform="translate(-292 -343.33)"/></g><g id="Grupo_11527" data-name="Grupo 11527"><path id="Trazado_12427" data-name="Trazado 12427" class="cls-13" d="M736.24,558.94c0-3.15,1.51-5.09,4-5.09s3.94,1.93,3.94,5.09-1.48,5.12-3.94,5.12-4-1.95-4-5.12m5.83,0c0-2.2-.71-3.45-1.87-3.45s-1.88,1.25-1.88,3.45.71,3.48,1.88,3.48,1.87-1.25,1.87-3.48" transform="translate(-292 -343.33)"/></g><g id="Grupo_11528" data-name="Grupo 11528"><path id="Trazado_12428" data-name="Trazado 12428" class="cls-13" d="M745.27,558.94c0-3.15,1.51-5.09,4-5.09s3.95,1.93,3.95,5.09-1.49,5.12-3.95,5.12-4-1.95-4-5.12m5.82,0c0-2.2-.71-3.45-1.87-3.45s-1.87,1.25-1.87,3.45.71,3.48,1.87,3.48,1.87-1.25,1.87-3.48" transform="translate(-292 -343.33)"/></g><g id="Grupo_11529" data-name="Grupo 11529"><path id="Trazado_12429" data-name="Trazado 12429" class="cls-13" d="M754.3,558.94c0-3.15,1.51-5.09,4-5.09s4,1.93,4,5.09-1.49,5.12-4,5.12-4-1.95-4-5.12m5.82,0c0-2.2-.71-3.45-1.87-3.45s-1.88,1.25-1.88,3.45.71,3.48,1.88,3.48,1.87-1.25,1.87-3.48" transform="translate(-292 -343.33)"/></g><g id="Grupo_11530" data-name="Grupo 11530"><path id="Trazado_12430" data-name="Trazado 12430" class="cls-13" d="M612.33,616.7v-.87c-2.13-.12-3.42-1.19-3.43-2.85h1.94a1.49,1.49,0,0,0,1.49,1.31v-2.64l-.72-.17c-1.63-.38-2.5-1.32-2.5-2.72,0-1.66,1.19-2.73,3.22-2.89v-.93h1v.93c1.9.17,3.11,1.28,3.14,2.84h-1.89a1.36,1.36,0,0,0-1.26-1.27V610l.73.14c1.73.38,2.6,1.28,2.6,2.75,0,1.72-1.2,2.79-3.33,3v.88Zm0-6.94v-2.33a1.22,1.22,0,0,0-1.27,1.15c0,.6.44,1,1.27,1.18m.95,2.06v2.48c.89,0,1.41-.52,1.41-1.23s-.44-1.06-1.41-1.25" transform="translate(-292 -343.33)"/></g><g id="Grupo_11531" data-name="Grupo 11531"><path id="Trazado_12431" data-name="Trazado 12431" class="cls-13" d="M625.34,614h-4.86v-1.74A62.87,62.87,0,0,1,624.4,606h2.88v6.39h1.27V614h-1.27v1.74h-1.94Zm-3.07-1.58h3.11v-5h0a45.84,45.84,0,0,0-3.07,4.95Z" transform="translate(-292 -343.33)"/></g></g></g><g id="Grupo_11533" data-name="Grupo 11533"><path id="Trazado_12433" data-name="Trazado 12433" class="cls-13" d="M634.24,607.67v0h-5V606h7v1.65l-4.08,8.12H630Z" transform="translate(-292 -343.33)"/></g><g class="cls-7"><g id="Grupo_11566" data-name="Grupo 11566"><g id="Grupo_11534" data-name="Grupo 11534"><path id="Trazado_12434" data-name="Trazado 12434" class="cls-13" d="M637.55,613h1.89a1.68,1.68,0,0,0,1.79,1.4,1.72,1.72,0,0,0,1.81-1.64v-.17a1.74,1.74,0,0,0-1.64-1.84h-.15a2,2,0,0,0-1.71.9H637.7l.49-5.62h6.21v1.62h-4.61l-.22,2.68h0a2.43,2.43,0,0,1,2.17-1.07,3.12,3.12,0,0,1,3.21,3,1.76,1.76,0,0,1,0,.23,3.45,3.45,0,0,1-3.41,3.49h-.36c-2.1,0-3.61-1.25-3.67-3" transform="translate(-292 -343.33)"/></g><g id="Grupo_11535" data-name="Grupo 11535"><path id="Trazado_12435" data-name="Trazado 12435" class="cls-13" d="M646.21,614.76a1.09,1.09,0,0,1,1.07-1.09h0a1.08,1.08,0,0,1,1.09,1.08h0a1.09,1.09,0,0,1-2.18,0h0" transform="translate(-292 -343.33)"/></g><g id="Grupo_11536" data-name="Grupo 11536"><path id="Trazado_12436" data-name="Trazado 12436" class="cls-13" d="M649.58,610.87c0-3.16,1.51-5.09,4-5.09s3.94,1.93,3.94,5.08S656,616,653.54,616s-4-2-4-5.12m5.83,0c0-2.21-.72-3.45-1.87-3.45s-1.88,1.25-1.88,3.45.71,3.48,1.88,3.48,1.87-1.25,1.87-3.48" transform="translate(-292 -343.33)"/></g><g id="Grupo_11537" data-name="Grupo 11537"><path id="Trazado_12437" data-name="Trazado 12437" class="cls-13" d="M658.61,610.87c0-3.16,1.51-5.09,3.95-5.09s4,1.93,4,5.08-1.49,5.13-4,5.13-3.95-2-3.95-5.12m5.82,0c0-2.21-.71-3.45-1.87-3.45s-1.88,1.25-1.88,3.45.72,3.48,1.88,3.48,1.87-1.25,1.87-3.48" transform="translate(-292 -343.33)"/></g><g id="Grupo_11538" data-name="Grupo 11538"><path id="Trazado_12438" data-name="Trazado 12438" class="cls-13" d="M667.63,610.87c0-3.16,1.51-5.09,4-5.09s3.94,1.93,3.94,5.08S674,616,671.59,616s-4-2-4-5.12m5.82,0c0-2.21-.71-3.45-1.86-3.45s-1.88,1.25-1.88,3.45.71,3.48,1.88,3.48,1.86-1.25,1.86-3.48" transform="translate(-292 -343.33)"/></g><g id="Grupo_11539" data-name="Grupo 11539"><path id="Trazado_12439" data-name="Trazado 12439" class="cls-13" d="M604.29,668.62v-.87c-2.13-.12-3.42-1.19-3.43-2.84h1.94a1.49,1.49,0,0,0,1.49,1.31v-2.64l-.72-.17c-1.63-.38-2.5-1.32-2.5-2.73,0-1.66,1.19-2.73,3.22-2.89v-.93h1v.93c1.9.17,3.11,1.28,3.14,2.84H606.5a1.38,1.38,0,0,0-1.26-1.27v2.52l.73.15c1.73.38,2.6,1.28,2.6,2.74,0,1.72-1.2,2.79-3.33,3v.87Zm0-6.93v-2.34a1.22,1.22,0,0,0-1.27,1.16c0,.6.44,1,1.27,1.18m1,2v2.48c.89-.05,1.41-.51,1.41-1.23s-.45-1-1.41-1.24" transform="translate(-292 -343.33)"/></g><g id="Grupo_11540" data-name="Grupo 11540"><path id="Trazado_12440" data-name="Trazado 12440" class="cls-13" d="M617.29,666h-4.86v-1.74a69.42,69.42,0,0,1,3.92-6.29h2.89v6.4h1.27V666h-1.27v1.74h-2Zm-3.06-1.57h3.11v-5h-.05a45.62,45.62,0,0,0-3.06,4.94Z" transform="translate(-292 -343.33)"/></g><g id="Grupo_11541" data-name="Grupo 11541"><path id="Trazado_12441" data-name="Trazado 12441" class="cls-13" d="M621.71,664.9h1.89a1.7,1.7,0,0,0,1.79,1.39,1.72,1.72,0,0,0,1.81-1.64v-.16a1.74,1.74,0,0,0-1.64-1.84h-.15a2,2,0,0,0-1.71.9h-1.84l.49-5.62h6.21v1.63H624l-.22,2.67h0a2.46,2.46,0,0,1,2.17-1.07,3.13,3.13,0,0,1,3.21,3.05v.23a3.47,3.47,0,0,1-3.41,3.5l-.36,0c-2.1,0-3.61-1.25-3.67-3" transform="translate(-292 -343.33)"/></g><g id="Grupo_11542" data-name="Grupo 11542"><path id="Trazado_12442" data-name="Trazado 12442" class="cls-13" d="M630.16,662.79c0-3.15,1.51-5.09,4-5.09s3.95,1.93,3.95,5.09-1.49,5.12-3.95,5.12-4-2-4-5.12m5.82,0c0-2.2-.71-3.45-1.87-3.45s-1.87,1.25-1.87,3.45.71,3.48,1.87,3.48S636,665,636,662.79" transform="translate(-292 -343.33)"/></g><g id="Grupo_11543" data-name="Grupo 11543"><path id="Trazado_12443" data-name="Trazado 12443" class="cls-13" d="M639.12,666.69a1.08,1.08,0,0,1,1.08-1.09h0a1.08,1.08,0,0,1,1.09,1.08h0a1.09,1.09,0,0,1-1.09,1.09,1.1,1.1,0,0,1-1.09-1.09h0" transform="translate(-292 -343.33)"/></g><g id="Grupo_11544" data-name="Grupo 11544"><path id="Trazado_12444" data-name="Trazado 12444" class="cls-13" d="M642.49,662.79c0-3.15,1.51-5.09,4-5.09s3.94,1.93,3.94,5.09-1.48,5.12-3.94,5.12-4-2-4-5.12m5.83,0c0-2.2-.71-3.45-1.87-3.45s-1.88,1.25-1.88,3.45.71,3.48,1.88,3.48,1.87-1.25,1.87-3.48" transform="translate(-292 -343.33)"/></g><g id="Grupo_11545" data-name="Grupo 11545"><path id="Trazado_12445" data-name="Trazado 12445" class="cls-13" d="M651.52,662.79c0-3.15,1.51-5.09,4-5.09s3.95,1.93,3.95,5.09-1.49,5.12-3.95,5.12-4-2-4-5.12m5.82,0c0-2.2-.71-3.45-1.87-3.45s-1.87,1.25-1.87,3.45.71,3.48,1.87,3.48,1.87-1.25,1.87-3.48" transform="translate(-292 -343.33)"/></g><g id="Grupo_11546" data-name="Grupo 11546"><path id="Trazado_12446" data-name="Trazado 12446" class="cls-13" d="M660.55,662.79c0-3.15,1.51-5.09,4-5.09s4,1.93,4,5.09-1.49,5.12-4,5.12-4-2-4-5.12m5.82,0c0-2.2-.71-3.45-1.87-3.45s-1.88,1.25-1.88,3.45.71,3.48,1.88,3.48,1.87-1.25,1.87-3.48" transform="translate(-292 -343.33)"/></g><g id="Grupo_11547" data-name="Grupo 11547"><path id="Trazado_12447" data-name="Trazado 12447" class="cls-13" d="M573.09,720.55v-.87c-2.12-.12-3.42-1.19-3.42-2.85h1.93a1.51,1.51,0,0,0,1.49,1.31V715.5l-.72-.17c-1.63-.38-2.5-1.32-2.5-2.73,0-1.65,1.2-2.72,3.23-2.89v-.92h.95v.93c1.9.17,3.12,1.28,3.14,2.84h-1.88a1.39,1.39,0,0,0-1.26-1.28v2.53l.72.14c1.73.38,2.6,1.28,2.6,2.75,0,1.72-1.2,2.79-3.32,3v.88Zm0-6.94v-2.33a1.2,1.2,0,0,0-1.26,1.15c0,.6.44,1,1.26,1.18m1,2.06v2.48c.88,0,1.41-.52,1.41-1.23s-.45-1.06-1.41-1.25" transform="translate(-292 -343.33)"/></g><g id="Grupo_11548" data-name="Grupo 11548"><path id="Trazado_12448" data-name="Trazado 12448" class="cls-13" d="M583.82,713.88H585a1.4,1.4,0,0,0,1.55-1.23s0-.09,0-.13c0-.8-.57-1.32-1.58-1.32a1.5,1.5,0,0,0-1.63,1.35v.07h-1.88c.07-1.81,1.48-3,3.6-3s3.41,1,3.41,2.61a2.28,2.28,0,0,1-2,2.28v0a2.34,2.34,0,0,1,2.4,2.27v.09c0,1.75-1.59,2.92-3.85,2.92s-3.65-1.22-3.74-3h2c.07.83.74,1.37,1.82,1.37s1.74-.58,1.74-1.4-.67-1.44-1.78-1.44h-1.2Z" transform="translate(-292 -343.33)"/></g><g id="Grupo_11549" data-name="Grupo 11549"><path id="Trazado_12449" data-name="Trazado 12449" class="cls-13" d="M590.26,716.82h1.89a1.7,1.7,0,0,0,1.8,1.4,1.72,1.72,0,0,0,1.8-1.65.43.43,0,0,0,0-.16,1.74,1.74,0,0,0-1.63-1.84H594a1.94,1.94,0,0,0-1.71.9h-1.83l.48-5.62h6.22v1.62H592.5l-.22,2.68h0a2.45,2.45,0,0,1,2.18-1.07,3.14,3.14,0,0,1,3.21,3,1.85,1.85,0,0,1,0,.23,3.44,3.44,0,0,1-3.41,3.49,2.17,2.17,0,0,1-.36,0c-2.1,0-3.61-1.24-3.67-3" transform="translate(-292 -343.33)"/></g><g id="Grupo_11550" data-name="Grupo 11550"><path id="Trazado_12450" data-name="Trazado 12450" class="cls-13" d="M598.71,714.72c0-3.16,1.51-5.1,4-5.1s3.94,1.93,3.94,5.09-1.48,5.13-3.94,5.13-4-2-4-5.12m5.83,0c0-2.21-.71-3.46-1.87-3.46s-1.88,1.26-1.88,3.46.71,3.48,1.88,3.48,1.87-1.26,1.87-3.48" transform="translate(-292 -343.33)"/></g><g id="Grupo_11551" data-name="Grupo 11551"><path id="Trazado_12451" data-name="Trazado 12451" class="cls-13" d="M607.68,718.61a1.07,1.07,0,0,1,1.07-1.09h0a1.09,1.09,0,0,1,1.09,1.08h0a1.09,1.09,0,0,1-1.09,1.09h0a1.08,1.08,0,0,1-1.09-1.08h0" transform="translate(-292 -343.33)"/></g><g id="Grupo_11552" data-name="Grupo 11552"><path id="Trazado_12452" data-name="Trazado 12452" class="cls-13" d="M611.05,714.72c0-3.16,1.51-5.1,4-5.1s4,1.93,4,5.09-1.49,5.13-4,5.13-4-2-4-5.12m5.82,0c0-2.21-.71-3.46-1.87-3.46s-1.87,1.26-1.87,3.46.71,3.48,1.87,3.48,1.87-1.26,1.87-3.48" transform="translate(-292 -343.33)"/></g><g id="Grupo_11553" data-name="Grupo 11553"><path id="Trazado_12453" data-name="Trazado 12453" class="cls-13" d="M620.07,714.72c0-3.16,1.51-5.1,4-5.1s3.94,1.93,3.94,5.09-1.48,5.13-3.94,5.13-4-2-4-5.12m5.83,0c0-2.21-.71-3.46-1.87-3.46s-1.88,1.26-1.88,3.46.71,3.48,1.88,3.48,1.87-1.26,1.87-3.48" transform="translate(-292 -343.33)"/></g><g id="Grupo_11554" data-name="Grupo 11554"><path id="Trazado_12454" data-name="Trazado 12454" class="cls-13" d="M629.1,714.72c0-3.16,1.51-5.1,3.95-5.1s4,1.93,4,5.09-1.49,5.13-4,5.13-3.95-2-3.95-5.12m5.82,0c0-2.21-.71-3.46-1.87-3.46s-1.87,1.26-1.87,3.46.71,3.48,1.87,3.48,1.87-1.26,1.87-3.48" transform="translate(-292 -343.33)"/></g><g id="Grupo_11555" data-name="Grupo 11555"><path id="Trazado_12455" data-name="Trazado 12455" class="cls-13" d="M526,772.47v-.87c-2.12-.12-3.42-1.19-3.42-2.84h1.93a1.51,1.51,0,0,0,1.49,1.31v-2.64l-.72-.17c-1.63-.38-2.5-1.32-2.5-2.73,0-1.66,1.19-2.73,3.23-2.89v-.93h1v.93c1.9.17,3.11,1.28,3.14,2.84h-1.88a1.37,1.37,0,0,0-1.26-1.27v2.52l.72.15c1.73.37,2.6,1.27,2.6,2.74,0,1.72-1.2,2.79-3.32,3v.87Zm0-6.93V763.2a1.22,1.22,0,0,0-1.27,1.16c0,.6.45,1,1.27,1.17m1,2.06v2.48c.89-.05,1.41-.51,1.41-1.23s-.44-1.06-1.4-1.25" transform="translate(-292 -343.33)"/></g><g id="Grupo_11556" data-name="Grupo 11556"><path id="Trazado_12456" data-name="Trazado 12456" class="cls-13" d="M537.86,761.56c2.06,0,3.48,1.19,3.48,2.82,0,1.22-.82,2.13-1.89,3.2l-2.39,2.3v0h4.41v1.62h-7.1v-1.37l3.68-3.55c1-1,1.29-1.48,1.29-2.16a1.41,1.41,0,0,0-1.5-1.32h-.05a1.56,1.56,0,0,0-1.64,1.47v.13h-1.9v0c0-1.85,1.48-3.15,3.61-3.15" transform="translate(-292 -343.33)"/></g><g id="Grupo_11557" data-name="Grupo 11557"><path id="Trazado_12457" data-name="Trazado 12457" class="cls-13" d="M542.57,766.64c0-3.15,1.51-5.09,3.95-5.09s4,1.93,4,5.08-1.49,5.13-4,5.13-3.95-2-3.95-5.12m5.82,0c0-2.21-.71-3.45-1.87-3.45s-1.87,1.25-1.87,3.45.71,3.48,1.87,3.48,1.87-1.25,1.87-3.48" transform="translate(-292 -343.33)"/></g><g id="Grupo_11558" data-name="Grupo 11558"><path id="Trazado_12458" data-name="Trazado 12458" class="cls-13" d="M551.59,766.64c0-3.15,1.51-5.09,4-5.09s3.94,1.93,3.94,5.08-1.49,5.13-3.94,5.13-4-2-4-5.12m5.83,0c0-2.21-.72-3.45-1.87-3.45s-1.88,1.25-1.88,3.45.71,3.48,1.88,3.48,1.87-1.25,1.87-3.48" transform="translate(-292 -343.33)"/></g><g id="Grupo_11559" data-name="Grupo 11559"><path id="Trazado_12459" data-name="Trazado 12459" class="cls-13" d="M560.56,770.53a1.08,1.08,0,0,1,1.07-1.09h0a1.09,1.09,0,0,1,1.09,1.08h0a1.09,1.09,0,0,1-1.09,1.09h0a1.08,1.08,0,0,1-1.09-1.08h0" transform="translate(-292 -343.33)"/></g><g id="Grupo_11560" data-name="Grupo 11560"><path id="Trazado_12460" data-name="Trazado 12460" class="cls-13" d="M563.93,766.64c0-3.15,1.51-5.09,4-5.09s4,1.93,4,5.08-1.49,5.13-4,5.13-4-2-4-5.12m5.82,0c0-2.21-.71-3.45-1.87-3.45s-1.87,1.25-1.87,3.45.71,3.48,1.87,3.48,1.87-1.25,1.87-3.48" transform="translate(-292 -343.33)"/></g><g id="Grupo_11561" data-name="Grupo 11561"><path id="Trazado_12461" data-name="Trazado 12461" class="cls-13" d="M573,766.64c0-3.15,1.51-5.09,4-5.09s3.94,1.93,3.94,5.08-1.48,5.13-3.94,5.13-4-2-4-5.12m5.83,0c0-2.21-.71-3.45-1.87-3.45s-1.88,1.25-1.88,3.45.71,3.48,1.88,3.48,1.87-1.25,1.87-3.48" transform="translate(-292 -343.33)"/></g><g id="Grupo_11562" data-name="Grupo 11562"><path id="Trazado_12462" data-name="Trazado 12462" class="cls-13" d="M582,766.64c0-3.15,1.51-5.09,3.95-5.09s4,1.93,4,5.08-1.49,5.13-4,5.13-3.95-2-3.95-5.12m5.82,0c0-2.21-.71-3.45-1.87-3.45s-1.87,1.25-1.87,3.45.71,3.48,1.87,3.48,1.87-1.25,1.87-3.48" transform="translate(-292 -343.33)"/></g><g id="Grupo_11563" data-name="Grupo 11563"><path id="Trazado_12463" data-name="Trazado 12463" class="cls-13" d="M365.15,350.4a1.26,1.26,0,0,0,1.18,1.32h.12c.86,0,1.32-.53,1.32-1.51v-6.7h2v6.71a3.34,3.34,0,0,1-6.62.58c0-.13,0-.26,0-.4Z" transform="translate(-292 -343.33)"/></g><g id="Grupo_11564" data-name="Grupo 11564"><path id="Trazado_12464" data-name="Trazado 12464" class="cls-13" d="M373.56,349.63a1.9,1.9,0,0,0,1.72,2.07h.33a1.91,1.91,0,0,0,2.05-1.74c0-.11,0-.22,0-.33v-6.12h2v6.32c0,2.15-1.59,3.62-4.09,3.62s-4.1-1.47-4.1-3.62v-6.32h2.05Z" transform="translate(-292 -343.33)"/></g><g id="Grupo_11565" data-name="Grupo 11565"><path id="Trazado_12465" data-name="Trazado 12465" class="cls-13" d="M385.72,353.45c-2.91,0-4.7-1.91-4.7-5.08s1.79-5,4.66-5a4.05,4.05,0,0,1,4.29,3.33h-2.05a2.2,2.2,0,0,0-2.24-1.63c-1.61,0-2.58,1.22-2.58,3.3s1,3.41,2.66,3.41a2.1,2.1,0,0,0,2.29-1.91.49.49,0,0,0,0-.12v-.15h-2.12v-1.49h4.12v1.1a4,4,0,0,1-3.61,4.28,3.57,3.57,0,0,1-.73,0" transform="translate(-292 -343.33)"/></g></g></g><g id="Grupo_11567" data-name="Grupo 11567"><path id="Trazado_12467" data-name="Trazado 12467" class="cls-13" d="M393.9,343.51l-3.39,9.77h2.1l.74-2.37h3.44l.74,2.37h2.18l-3.4-9.77Zm1.15,1.87h.05l1.25,4h-2.56Z" transform="translate(-292 -343.33)"/></g><g class="cls-7"><g id="Grupo_11572" data-name="Grupo 11572"><g id="Grupo_11568" data-name="Grupo 11568"><path id="Trazado_12468" data-name="Trazado 12468" class="cls-13" d="M404.43,343.51c2.93,0,4.66,1.75,4.66,4.85s-1.73,4.92-4.66,4.92H400.7v-9.77Zm-1.68,8.08h1.44c1.83,0,2.81-1.11,2.81-3.22s-1-3.17-2.81-3.17h-1.44Z" transform="translate(-292 -343.33)"/></g><g id="Grupo_11569" data-name="Grupo 11569"><path id="Trazado_12469" data-name="Trazado 12469" class="cls-13" d="M419.52,348.4c0,3.11-1.82,5.05-4.71,5.05s-4.71-1.94-4.71-5.05,1.81-5.06,4.71-5.06,4.71,2,4.71,5.06m-7.34,0c0,2.05,1,3.34,2.63,3.34s2.62-1.29,2.62-3.34-1-3.35-2.62-3.35-2.63,1.3-2.63,3.35" transform="translate(-292 -343.33)"/></g><g id="Grupo_11570" data-name="Grupo 11570"><path id="Trazado_12470" data-name="Trazado 12470" class="cls-13" d="M422.88,353.28h-2v-9.77h4c2.25,0,3.53,1.18,3.53,3.12a2.88,2.88,0,0,1-1.77,2.77l2.06,3.88h-2.32l-1.82-3.57h-1.64Zm0-5.06h1.76a1.46,1.46,0,0,0,1.63-1.28,1.22,1.22,0,0,0,0-.27,1.5,1.5,0,0,0-1.43-1.57h-2Z" transform="translate(-292 -343.33)"/></g><g id="Grupo_11571" data-name="Grupo 11571"><path id="Trazado_12471" data-name="Trazado 12471" class="cls-13" d="M434.88,343.51h1.82a10.73,10.73,0,0,0,0,11.87h-1.82a9.77,9.77,0,0,1,0-11.87" transform="translate(-292 -343.33)"/></g></g></g><g id="Grupo_11573" data-name="Grupo 11573"><path id="Trazado_12473" data-name="Trazado 12473" class="cls-13" d="M437.75,343.51v9.77h6.47v-1.69h-4.43v-2.47H444v-1.57h-4.18V345.2h4.43v-1.69Z" transform="translate(-292 -343.33)"/></g><g class="cls-7"><g id="Grupo_11575" data-name="Grupo 11575"><g id="Grupo_11574" data-name="Grupo 11574"><path id="Trazado_12474" data-name="Trazado 12474" class="cls-13" d="M449.43,343.51c2.93,0,4.66,1.75,4.66,4.85s-1.73,4.92-4.66,4.92H445.7v-9.77Zm-1.69,8.08h1.44c1.83,0,2.82-1.11,2.82-3.22s-1-3.17-2.82-3.17h-1.44Z" transform="translate(-292 -343.33)"/></g></g></g><g id="Grupo_11576" data-name="Grupo 11576"><path id="Trazado_12476" data-name="Trazado 12476" class="cls-13" d="M457.76,343.51l-3.39,9.77h2.1l.74-2.37h3.44l.74,2.37h2.18l-3.4-9.77Zm1.15,1.87h0l1.25,4h-2.56Z" transform="translate(-292 -343.33)"/></g><g class="cls-7"><g id="Grupo_11581" data-name="Grupo 11581"><g id="Grupo_11577" data-name="Grupo 11577"><path id="Trazado_12477" data-name="Trazado 12477" class="cls-13" d="M468.29,343.51c2.93,0,4.66,1.75,4.66,4.85s-1.73,4.92-4.66,4.92h-3.73v-9.77Zm-1.69,8.08h1.45c1.82,0,2.81-1.11,2.81-3.22s-1-3.17-2.81-3.17H466.6Z" transform="translate(-292 -343.33)"/></g><g id="Grupo_11578" data-name="Grupo 11578"><path id="Trazado_12478" data-name="Trazado 12478" class="cls-13" d="M475.51,355.38h-1.82a10.78,10.78,0,0,0,0-11.87h1.82a9.81,9.81,0,0,1,0,11.87" transform="translate(-292 -343.33)"/></g><g id="Grupo_11579" data-name="Grupo 11579"><path id="Trazado_12479" data-name="Trazado 12479" class="cls-13" d="M742.36,343.51a3.19,3.19,0,0,1,3.38,3,2.16,2.16,0,0,1,0,.36,3.25,3.25,0,0,1-3.14,3.35h-2.17v3.08h-2v-9.77Zm-1.93,5.09h1.38a1.62,1.62,0,0,0,1.84-1.39,1.37,1.37,0,0,0,0-.35,1.62,1.62,0,0,0-1.5-1.74,1.29,1.29,0,0,0-.34,0h-1.39Z" transform="translate(-292 -343.33)"/></g><g id="Grupo_11580" data-name="Grupo 11580"><path id="Trazado_12480" data-name="Trazado 12480" class="cls-13" d="M749,353.28h-2v-9.77h4c2.25,0,3.53,1.18,3.53,3.12a2.86,2.86,0,0,1-1.77,2.77l2.06,3.88h-2.32l-1.82-3.57H749Zm0-5.06h1.76a1.46,1.46,0,0,0,1.63-1.28,1.22,1.22,0,0,0,0-.27A1.5,1.5,0,0,0,751,345.1h-2Z" transform="translate(-292 -343.33)"/></g></g></g><g id="Grupo_11582" data-name="Grupo 11582"><path id="Trazado_12482" data-name="Trazado 12482" class="cls-13" d="M755.82,343.51v9.77h6.48v-1.69h-4.43v-2.47h4.18v-1.57h-4.18V345.2h4.43v-1.69Z" transform="translate(-292 -343.33)"/></g><g class="cls-7"><g id="Grupo_11584" data-name="Grupo 11584"><g id="Grupo_11583" data-name="Grupo 11583"><path id="Trazado_12483" data-name="Trazado 12483" class="cls-13" d="M763.47,348.39c0-3.14,1.79-5.05,4.62-5.05a4,4,0,0,1,4.29,3.68h-2a2.27,2.27,0,0,0-2.3-2c-1.54,0-2.54,1.3-2.54,3.36s1,3.37,2.55,3.37a2.21,2.21,0,0,0,2.3-1.87h2a4,4,0,0,1-4.3,3.56c-2.84,0-4.62-1.9-4.62-5.06" transform="translate(-292 -343.33)"/></g></g></g><path id="Trazado_12485" data-name="Trazado 12485" class="cls-13" d="M773.65,353.28h2v-9.77h-2Z" transform="translate(-292 -343.33)"/><g class="cls-7"><g id="Grupo_11586" data-name="Grupo 11586"><g id="Grupo_11585" data-name="Grupo 11585"><path id="Trazado_12486" data-name="Trazado 12486" class="cls-13" d="M786.44,348.4c0,3.11-1.82,5.05-4.71,5.05S777,351.51,777,348.4s1.81-5.06,4.71-5.06,4.71,2,4.71,5.06m-7.34,0c0,2.05,1,3.34,2.63,3.34s2.62-1.29,2.62-3.34-1-3.35-2.62-3.35-2.63,1.3-2.63,3.35" transform="translate(-292 -343.33)"/></g></g></g><g id="Grupo_11587" data-name="Grupo 11587"><path id="Trazado_12488" data-name="Trazado 12488" class="cls-13" d="M323,460.39v-9.77h1.7l4.57,6.37h.05v-6.37h2v9.77h-1.69L325,454h-.07v6.4Z" transform="translate(-292 -343.33)"/></g><path id="Trazado_12489" data-name="Trazado 12489" class="cls-13" d="M332.87,450.62h2.05v9.77h-2.05Z" transform="translate(-292 -343.33)"/><g class="cls-7"><g id="Grupo_11590" data-name="Grupo 11590"><g id="Grupo_11588" data-name="Grupo 11588"><path id="Trazado_12490" data-name="Trazado 12490" class="cls-13" d="M336.24,455.51c0-3.15,1.79-5.05,4.62-5.05a4,4,0,0,1,4.29,3.67h-2a2.25,2.25,0,0,0-2.3-2c-1.54,0-2.54,1.29-2.54,3.35s1,3.37,2.55,3.37a2.21,2.21,0,0,0,2.3-1.87h2a4,4,0,0,1-4.3,3.56c-2.84,0-4.62-1.9-4.62-5.05" transform="translate(-292 -343.33)"/></g><g id="Grupo_11589" data-name="Grupo 11589"><path id="Trazado_12491" data-name="Trazado 12491" class="cls-13" d="M355.54,455.51c0,3.11-1.82,5.05-4.71,5.05s-4.71-1.94-4.71-5.05,1.81-5.05,4.71-5.05,4.71,1.94,4.71,5.05m-7.34,0c0,2.05,1,3.34,2.63,3.34s2.62-1.29,2.62-3.34-1-3.35-2.62-3.35-2.63,1.3-2.63,3.35" transform="translate(-292 -343.33)"/></g></g></g><g id="Grupo_11591" data-name="Grupo 11591"><path id="Trazado_12493" data-name="Trazado 12493" class="cls-13" d="M363.17,460.39h-6.31v-9.77h2v8.08h4.27Z" transform="translate(-292 -343.33)"/></g><g id="Grupo_11592" data-name="Grupo 11592"><path id="Trazado_12494" data-name="Trazado 12494" class="cls-13" d="M370,458H366.6l-.74,2.37h-2.1l3.39-9.77h2.4l3.4,9.77h-2.17Zm-3-1.53h2.56l-1.26-4h0Zm.54-6.64,1.53-2.07h1.83l-1.8,2.07Z" transform="translate(-292 -343.33)"/></g><g class="cls-7"><g id="Grupo_11595" data-name="Grupo 11595"><g id="Grupo_11593" data-name="Grupo 11593"><path id="Trazado_12495" data-name="Trazado 12495" class="cls-13" d="M375.35,457.61c.1.81.94,1.34,2,1.34s1.83-.53,1.83-1.24-.46-1-1.64-1.26l-1.27-.27c-1.81-.39-2.69-1.3-2.69-2.73,0-1.8,1.55-3,3.73-3s3.7,1.17,3.74,2.93h-1.91c-.07-.82-.8-1.32-1.82-1.32s-1.68.48-1.68,1.2.47.94,1.6,1.2l1.18.25c2,.42,2.81,1.26,2.81,2.75,0,1.9-1.54,3.1-4,3.1s-3.85-1.12-3.91-3Z" transform="translate(-292 -343.33)"/></g><g id="Grupo_11594" data-name="Grupo 11594"><path id="Trazado_12496" data-name="Trazado 12496" class="cls-13" d="M389.22,450.62a3.2,3.2,0,0,1,3.38,3,2.16,2.16,0,0,1,0,.36,3.24,3.24,0,0,1-3.14,3.35,1.93,1.93,0,0,1-.34,0h-1.83v3.08h-2.05v-9.77Zm-1.93,5.1h1.38a1.65,1.65,0,0,0,1.85-1.4c0-.12,0-.23,0-.34a1.64,1.64,0,0,0-1.51-1.75,1.93,1.93,0,0,0-.34,0h-1.39Z" transform="translate(-292 -343.33)"/></g></g></g><g id="Grupo_11596" data-name="Grupo 11596"><path id="Trazado_12498" data-name="Trazado 12498" class="cls-13" d="M398.55,458h-3.43l-.75,2.37h-2.1l3.39-9.77h2.4l3.4,9.77h-2.17Zm-3-1.53h2.55l-1.25-4h-.05Z" transform="translate(-292 -343.33)"/></g><g class="cls-7"><g id="Grupo_11600" data-name="Grupo 11600"><g id="Grupo_11597" data-name="Grupo 11597"><path id="Trazado_12499" data-name="Trazado 12499" class="cls-13" d="M403.86,457.61c.1.81.94,1.34,2,1.34s1.84-.53,1.84-1.24-.47-1-1.65-1.26l-1.27-.27c-1.81-.39-2.69-1.3-2.69-2.73,0-1.8,1.56-3,3.74-3s3.7,1.17,3.73,2.93h-1.91c-.07-.82-.8-1.32-1.82-1.32s-1.68.48-1.68,1.2.47.94,1.6,1.2l1.18.25c2,.42,2.81,1.26,2.81,2.75,0,1.9-1.54,3.1-4,3.1s-3.85-1.12-3.91-3Z" transform="translate(-292 -343.33)"/></g><g id="Grupo_11598" data-name="Grupo 11598"><path id="Trazado_12500" data-name="Trazado 12500" class="cls-13" d="M410.71,455.51c0-3.1,1.81-5.05,4.71-5.05s4.71,2,4.71,5.05a5,5,0,0,1-1.56,3.94l1.24,1.87h-2l-.69-1a5,5,0,0,1-1.71.27c-2.9,0-4.71-1.91-4.71-5.05m5.41,3.27-1.07-1.6h1.85l.42.58a3.39,3.39,0,0,0,.72-2.25c0-2.05-1-3.37-2.62-3.37s-2.63,1.32-2.63,3.37,1,3.36,2.63,3.36a2.74,2.74,0,0,0,.7-.09" transform="translate(-292 -343.33)"/></g><g id="Grupo_11599" data-name="Grupo 11599"><path id="Trazado_12501" data-name="Trazado 12501" class="cls-13" d="M423.49,456.74a1.91,1.91,0,0,0,1.72,2.07h.33a1.9,1.9,0,0,0,2-1.74,1.82,1.82,0,0,0,0-.33v-6.12h2v6.32c0,2.16-1.59,3.62-4.09,3.62s-4.1-1.46-4.1-3.62v-6.32h2.05Z" transform="translate(-292 -343.33)"/></g></g></g><path id="Trazado_12503" data-name="Trazado 12503" class="cls-13" d="M431.26,450.62h2v9.77h-2Z" transform="translate(-292 -343.33)"/><g id="Grupo_11601" data-name="Grupo 11601"><path id="Trazado_12504" data-name="Trazado 12504" class="cls-13" d="M434.93,460.39v-9.77h1.7L441.2,457h.05v-6.37h2v9.77h-1.7l-4.57-6.4h-.06v6.4Z" transform="translate(-292 -343.33)"/></g><path id="Trazado_12505" data-name="Trazado 12505" class="cls-13" d="M444.83,450.62h2.05v9.77h-2.05Z" transform="translate(-292 -343.33)"/><g class="cls-7"><g id="Grupo_11606" data-name="Grupo 11606"><g id="Grupo_11602" data-name="Grupo 11602"><path id="Trazado_12506" data-name="Trazado 12506" class="cls-13" d="M453.67,450.62h1.82a10.73,10.73,0,0,0,0,11.87h-1.82a9.77,9.77,0,0,1,0-11.87" transform="translate(-292 -343.33)"/></g><g id="Grupo_11603" data-name="Grupo 11603"><path id="Trazado_12507" data-name="Trazado 12507" class="cls-13" d="M458.79,454.65H460a1.4,1.4,0,0,0,1.55-1.23.53.53,0,0,0,0-.13c0-.79-.56-1.31-1.58-1.31a1.48,1.48,0,0,0-1.62,1.35.13.13,0,0,0,0,.06h-1.88c.07-1.8,1.48-3,3.6-3s3.42,1,3.42,2.6a2.29,2.29,0,0,1-2,2.29v0a2.33,2.33,0,0,1,2.4,2.27v.08c0,1.76-1.59,2.92-3.84,2.92s-3.65-1.21-3.75-3h2c.06.82.73,1.36,1.81,1.36s1.74-.57,1.74-1.4-.67-1.43-1.77-1.43h-1.21Z" transform="translate(-292 -343.33)"/></g><g id="Grupo_11604" data-name="Grupo 11604"><path id="Trazado_12508" data-name="Trazado 12508" class="cls-13" d="M465,455.49c0-3.15,1.51-5.09,3.95-5.09s3.95,1.93,3.95,5.09-1.49,5.12-3.95,5.12-3.95-2-3.95-5.12m5.82,0c0-2.2-.71-3.45-1.87-3.45s-1.87,1.25-1.87,3.45.7,3.48,1.87,3.48,1.87-1.25,1.87-3.48" transform="translate(-292 -343.33)"/></g><g id="Grupo_11605" data-name="Grupo 11605"><path id="Trazado_12509" data-name="Trazado 12509" class="cls-13" d="M475.51,462.49h-1.82a10.78,10.78,0,0,0,0-11.87h1.82a9.81,9.81,0,0,1,0,11.87" transform="translate(-292 -343.33)"/></g></g></g><g id="Grupo_11607" data-name="Grupo 11607"><path id="Trazado_12511" data-name="Trazado 12511" class="cls-13" d="M300,502.55l-2.78,6.93h-.06l-2.77-6.93H292v9.77h1.82v-6.59h.06l2.65,6.5h1.29l2.65-6.5h0v6.59h1.83v-9.77Z" transform="translate(-292 -343.33)"/></g><g id="Grupo_11608" data-name="Grupo 11608"><path id="Trazado_12512" data-name="Trazado 12512" class="cls-13" d="M309.62,509.94h-3.43l-.74,2.37h-2.1l3.39-9.77h2.4l3.4,9.77h-2.17Zm-3-1.52h2.55l-1.25-4h-.05Z" transform="translate(-292 -343.33)"/></g><g id="Grupo_11609" data-name="Grupo 11609"><path id="Trazado_12513" data-name="Trazado 12513" class="cls-13" d="M314.55,512.32v-8.09h-2.82v-1.68h7.7v1.68h-2.84v8.09Z" transform="translate(-292 -343.33)"/></g><path id="Trazado_12514" data-name="Trazado 12514" class="cls-13" d="M320.56,502.55h2v9.77h-2Zm0,9.77.24-10.55,1.53-2.06h1.84l-1.81,2.06Z" transform="translate(-292 -343.33)"/><g id="Grupo_11610" data-name="Grupo 11610"><path id="Trazado_12515" data-name="Trazado 12515" class="cls-13" d="M329.88,509.94h-3.43l-.75,2.37h-2.1l3.4-9.77h2.4l3.4,9.77h-2.17Zm-3-1.52h2.55l-1.25-4h-.05Z" transform="translate(-292 -343.33)"/></g><g class="cls-7"><g id="Grupo_11612" data-name="Grupo 11612"><g id="Grupo_11611" data-name="Grupo 11611"><path id="Trazado_12516" data-name="Trazado 12516" class="cls-13" d="M335.2,509.54c.1.8.93,1.33,2,1.33s1.84-.52,1.84-1.24-.47-1-1.65-1.25l-1.27-.28c-1.8-.39-2.69-1.3-2.69-2.73,0-1.8,1.56-3,3.74-3s3.7,1.17,3.74,2.94H339c-.07-.83-.79-1.33-1.81-1.33s-1.69.48-1.69,1.21.47.94,1.6,1.2l1.19.25c1.95.42,2.8,1.26,2.8,2.74,0,1.9-1.53,3.1-4,3.1s-3.84-1.12-3.9-2.95Z" transform="translate(-292 -343.33)"/></g></g></g><g id="Grupo_11613" data-name="Grupo 11613"><path id="Trazado_12518" data-name="Trazado 12518" class="cls-13" d="M350.74,509.94h-3.43l-.75,2.37h-2.1l3.4-9.77h2.4l3.4,9.77h-2.17Zm-3-1.52h2.55l-1.25-4H349Z" transform="translate(-292 -343.33)"/></g><g class="cls-7"><g id="Grupo_11616" data-name="Grupo 11616"><g id="Grupo_11614" data-name="Grupo 11614"><path id="Trazado_12519" data-name="Trazado 12519" class="cls-13" d="M358.58,512.49c-2.92,0-4.7-1.91-4.7-5.09s1.78-5,4.65-5a4.05,4.05,0,0,1,4.3,3.32h-2.06a2.19,2.19,0,0,0-2.23-1.63c-1.61,0-2.58,1.23-2.58,3.3s1,3.42,2.66,3.42a2.11,2.11,0,0,0,2.29-1.91.49.49,0,0,1,0-.12v-.16H358.8v-1.49h4.12v1.1a4,4,0,0,1-3.61,4.28,4.45,4.45,0,0,1-.73,0" transform="translate(-292 -343.33)"/></g><g id="Grupo_11615" data-name="Grupo 11615"><path id="Trazado_12520" data-name="Trazado 12520" class="cls-13" d="M366.31,508.67a1.89,1.89,0,0,0,1.72,2.06h.33a1.89,1.89,0,0,0,2-1.74,1.71,1.71,0,0,0,0-.32v-6.12h2.05v6.32c0,2.15-1.59,3.62-4.09,3.62s-4.1-1.47-4.1-3.62v-6.32h2.05Z" transform="translate(-292 -343.33)"/></g></g></g><path id="Trazado_12522" data-name="Trazado 12522" class="cls-13" d="M374.07,502.55h2.05v9.77h-2.05Z" transform="translate(-292 -343.33)"/><g class="cls-7"><g id="Grupo_11619" data-name="Grupo 11619"><g id="Grupo_11617" data-name="Grupo 11617"><path id="Trazado_12523" data-name="Trazado 12523" class="cls-13" d="M379.79,512.32h-2.05v-9.77h4c2.25,0,3.54,1.18,3.54,3.11a2.87,2.87,0,0,1-1.78,2.78l2.06,3.88h-2.31l-1.82-3.58h-1.64Zm0-5.06h1.76a1.46,1.46,0,0,0,1.62-1.29,1.22,1.22,0,0,0,0-.27,1.5,1.5,0,0,0-1.43-1.56h-2Z" transform="translate(-292 -343.33)"/></g><g id="Grupo_11618" data-name="Grupo 11618"><path id="Trazado_12524" data-name="Trazado 12524" class="cls-13" d="M388.66,512.32h-2v-9.77h4c2.25,0,3.53,1.18,3.53,3.11a2.87,2.87,0,0,1-1.77,2.78l2.06,3.88h-2.32l-1.82-3.58h-1.64Zm0-5.06h1.76a1.47,1.47,0,0,0,1.63-1.29,1.22,1.22,0,0,0,0-.27,1.5,1.5,0,0,0-1.43-1.56h-2Z" transform="translate(-292 -343.33)"/></g></g></g><g id="Grupo_11620" data-name="Grupo 11620"><path id="Trazado_12526" data-name="Trazado 12526" class="cls-13" d="M402,512.32H395.5v-9.77H402v1.68h-4.43v2.36h4.17v1.57h-4.17v2.47H402Z" transform="translate(-292 -343.33)"/></g><g class="cls-7"><g id="Grupo_11622" data-name="Grupo 11622"><g id="Grupo_11621" data-name="Grupo 11621"><path id="Trazado_12527" data-name="Trazado 12527" class="cls-13" d="M407.84,512.49c-2.91,0-4.7-1.91-4.7-5.09s1.79-5,4.66-5a4,4,0,0,1,4.29,3.32h-2a2.21,2.21,0,0,0-2.24-1.63c-1.61,0-2.58,1.23-2.58,3.3s1,3.42,2.66,3.42a2.11,2.11,0,0,0,2.29-1.91s0-.08,0-.12v-.16h-2.12v-1.49h4.12v1.1a4,4,0,0,1-3.61,4.28,4.45,4.45,0,0,1-.73,0" transform="translate(-292 -343.33)"/></g></g></g><g id="Grupo_11623" data-name="Grupo 11623"><path id="Trazado_12529" data-name="Trazado 12529" class="cls-13" d="M418.91,509.94h-3.44l-.74,2.37h-2.1l3.39-9.77h2.4l3.4,9.77h-2.17Zm-3-1.52h2.56l-1.26-4h0Z" transform="translate(-292 -343.33)"/></g><g class="cls-7"><g id="Grupo_11625" data-name="Grupo 11625"><g id="Grupo_11624" data-name="Grupo 11624"><path id="Trazado_12530" data-name="Trazado 12530" class="cls-13" d="M424.87,512.32h-2.05v-9.77h4c2.25,0,3.53,1.18,3.53,3.11a2.85,2.85,0,0,1-1.77,2.78l2.06,3.88h-2.32l-1.82-3.58h-1.63Zm0-5.06h1.76a1.46,1.46,0,0,0,1.62-1.29,2.44,2.44,0,0,0,0-.27,1.51,1.51,0,0,0-1.44-1.56h-1.95Z" transform="translate(-292 -343.33)"/></g></g></g><g id="Grupo_11626" data-name="Grupo 11626"><path id="Trazado_12532" data-name="Trazado 12532" class="cls-13" d="M437.35,509.94h-3.43l-.75,2.37h-2.1l3.4-9.77h2.4l3.4,9.77H438.1Zm-3-1.52h2.55l-1.25-4h-.05Z" transform="translate(-292 -343.33)"/></g><g id="Grupo_11627" data-name="Grupo 11627"><path id="Trazado_12533" data-name="Trazado 12533" class="cls-13" d="M442.68,512.32v-3.65l-3.4-6.12h2.23l2.19,4.17h.05l2.19-4.17h2.19l-3.4,6.12v3.65Z" transform="translate(-292 -343.33)"/></g><g class="cls-7"><g id="Grupo_11634" data-name="Grupo 11634"><g id="Grupo_11628" data-name="Grupo 11628"><path id="Trazado_12534" data-name="Trazado 12534" class="cls-13" d="M454.3,502.55h1.82a10.17,10.17,0,0,0-1.79,5.92,10.33,10.33,0,0,0,1.79,5.95H454.3a8.85,8.85,0,0,1-2-5.94,8.76,8.76,0,0,1,2-5.93" transform="translate(-292 -343.33)"/></g><g id="Grupo_11629" data-name="Grupo 11629"><path id="Trazado_12535" data-name="Trazado 12535" class="cls-13" d="M459.42,506.58h1.19a1.4,1.4,0,0,0,1.55-1.23.62.62,0,0,0,0-.13c0-.8-.56-1.32-1.58-1.32a1.49,1.49,0,0,0-1.62,1.35.17.17,0,0,0,0,.07h-1.88c.07-1.81,1.48-3,3.6-3s3.42,1.05,3.42,2.61a2.28,2.28,0,0,1-2,2.28v0a2.34,2.34,0,0,1,2.4,2.27v.09c0,1.75-1.59,2.92-3.84,2.92s-3.65-1.21-3.75-3h2c.06.83.73,1.37,1.81,1.37s1.74-.58,1.74-1.4-.67-1.44-1.77-1.44h-1.21Z" transform="translate(-292 -343.33)"/></g><g id="Grupo_11630" data-name="Grupo 11630"><path id="Trazado_12536" data-name="Trazado 12536" class="cls-13" d="M469.27,502.33c2.06,0,3.48,1.19,3.48,2.83,0,1.21-.82,2.13-1.89,3.2l-2.39,2.29v0h4.42v1.63h-7.1v-1.38l3.67-3.54c1-1,1.3-1.49,1.3-2.17a1.42,1.42,0,0,0-1.51-1.31h-.05a1.57,1.57,0,0,0-1.64,1.48v.12h-1.9v0c0-1.85,1.48-3.16,3.61-3.16" transform="translate(-292 -343.33)"/></g><g id="Grupo_11631" data-name="Grupo 11631"><path id="Trazado_12537" data-name="Trazado 12537" class="cls-13" d="M475.51,514.42h-1.82a10.78,10.78,0,0,0,0-11.87h1.82a9.81,9.81,0,0,1,0,11.87" transform="translate(-292 -343.33)"/></g><g id="Grupo_11632" data-name="Grupo 11632"><path id="Trazado_12538" data-name="Trazado 12538" class="cls-13" d="M349.89,564c-2.91,0-4.7-1.91-4.7-5.08s1.79-5,4.66-5a4,4,0,0,1,4.29,3.32h-2.05a2.21,2.21,0,0,0-2.24-1.63c-1.61,0-2.58,1.22-2.58,3.3s1,3.42,2.66,3.42a2.11,2.11,0,0,0,2.29-1.91.49.49,0,0,0,0-.12v-.16h-2.12v-1.49h4.12v1.1a4,4,0,0,1-3.61,4.28,3.57,3.57,0,0,1-.73,0" transform="translate(-292 -343.33)"/></g><g id="Grupo_11633" data-name="Grupo 11633"><path id="Trazado_12539" data-name="Trazado 12539" class="cls-13" d="M364.7,559c0,3.11-1.83,5.06-4.72,5.06s-4.71-1.95-4.71-5.06,1.81-5.05,4.71-5.05,4.72,1.94,4.72,5.05m-7.34,0c0,2,1,3.34,2.62,3.34S362.6,561,362.6,559s-1-3.35-2.62-3.35-2.62,1.3-2.62,3.35" transform="translate(-292 -343.33)"/></g></g></g><g id="Grupo_11635" data-name="Grupo 11635"><path id="Trazado_12541" data-name="Trazado 12541" class="cls-13" d="M366,563.85v-9.77h1.71l4.56,6.36h.05v-6.36h2v9.77H372.6l-4.57-6.4H368v6.4Z" transform="translate(-292 -343.33)"/></g><g id="Grupo_11636" data-name="Grupo 11636"><path id="Trazado_12542" data-name="Trazado 12542" class="cls-13" d="M375.7,562.51l5-6.7v0h-4.85v-1.68h7.29v1.32l-4.94,6.71v0h5.08v1.7H375.7Z" transform="translate(-292 -343.33)"/></g><g id="Grupo_11637" data-name="Grupo 11637"><path id="Trazado_12543" data-name="Trazado 12543" class="cls-13" d="M390.32,561.47h-3.44l-.74,2.37H384l3.39-9.77h2.4l3.4,9.77h-2.17Zm-3-1.52h2.56l-1.26-4h-.05Z" transform="translate(-292 -343.33)"/></g><g id="Grupo_11638" data-name="Grupo 11638"><path id="Trazado_12544" data-name="Trazado 12544" class="cls-13" d="M400.54,563.85h-6.31v-9.77h2v8.08h4.27Z" transform="translate(-292 -343.33)"/></g><g class="cls-7"><g id="Grupo_11641" data-name="Grupo 11641"><g id="Grupo_11639" data-name="Grupo 11639"><path id="Trazado_12545" data-name="Trazado 12545" class="cls-13" d="M410.47,559c0,3.11-1.82,5.06-4.71,5.06s-4.71-1.95-4.71-5.06,1.81-5.05,4.71-5.05,4.71,1.94,4.71,5.05m-7.34,0c0,2,1,3.34,2.63,3.34s2.62-1.29,2.62-3.34-1-3.35-2.62-3.35-2.63,1.3-2.63,3.35" transform="translate(-292 -343.33)"/></g><g id="Grupo_11640" data-name="Grupo 11640"><path id="Trazado_12546" data-name="Trazado 12546" class="cls-13" d="M418.5,554.08a3.18,3.18,0,0,1,3.38,3c0,.12,0,.24,0,.36a3.26,3.26,0,0,1-3.15,3.35h-2.17v3.08h-2v-9.77Zm-1.93,5.09H418a1.65,1.65,0,0,0,1.85-1.4,1.93,1.93,0,0,0,0-.34,1.63,1.63,0,0,0-1.5-1.75,2,2,0,0,0-.35,0h-1.39Z" transform="translate(-292 -343.33)"/></g></g></g><path id="Trazado_12548" data-name="Trazado 12548" class="cls-13" d="M423.09,554.08h2.05v9.77h-2.05Z" transform="translate(-292 -343.33)"/><g class="cls-7"><g id="Grupo_11643" data-name="Grupo 11643"><g id="Grupo_11642" data-name="Grupo 11642"><path id="Trazado_12549" data-name="Trazado 12549" class="cls-13" d="M435.88,559c0,3.11-1.82,5.06-4.71,5.06s-4.71-1.95-4.71-5.06,1.81-5.05,4.71-5.05,4.71,1.94,4.71,5.05m-7.34,0c0,2,1,3.34,2.63,3.34s2.62-1.29,2.62-3.34-1-3.35-2.62-3.35-2.63,1.3-2.63,3.35" transform="translate(-292 -343.33)"/></g></g></g><g id="Grupo_11644" data-name="Grupo 11644"><path id="Trazado_12551" data-name="Trazado 12551" class="cls-13" d="M439.52,563.85l-3.29-9.77h2.29l2.23,7.66h.05l2.24-7.66h2.22L442,563.85Z" transform="translate(-292 -343.33)"/></g><path id="Trazado_12552" data-name="Trazado 12552" class="cls-13" d="M446.26,554.08h2.05v9.77h-2.05Z" transform="translate(-292 -343.33)"/><g class="cls-7"><g id="Grupo_11647" data-name="Grupo 11647"><g id="Grupo_11645" data-name="Grupo 11645"><path id="Trazado_12553" data-name="Trazado 12553" class="cls-13" d="M455.1,554.08h1.82a10.17,10.17,0,0,0-1.79,5.92,10.3,10.3,0,0,0,1.79,5.94H455.1a9.75,9.75,0,0,1,0-11.86" transform="translate(-292 -343.33)"/></g><g id="Grupo_11646" data-name="Grupo 11646"><path id="Trazado_12554" data-name="Trazado 12554" class="cls-13" d="M461.34,553.86c2.06,0,3.47,1.19,3.47,2.82,0,1.22-.81,2.13-1.89,3.2l-2.38,2.3v0H465v1.62h-7.1v-1.37l3.68-3.55c1-1,1.29-1.48,1.29-2.16a1.4,1.4,0,0,0-1.5-1.31h-.05a1.56,1.56,0,0,0-1.64,1.47v.13h-1.9v0c0-1.84,1.47-3.15,3.61-3.15" transform="translate(-292 -343.33)"/></g></g></g><g id="Grupo_11648" data-name="Grupo 11648"><path id="Trazado_12556" data-name="Trazado 12556" class="cls-13" d="M470.92,555.74v0h-5v-1.62h7v1.64l-4.07,8.13h-2.15Z" transform="translate(-292 -343.33)"/></g><g class="cls-7"><g id="Grupo_11653" data-name="Grupo 11653"><g id="Grupo_11649" data-name="Grupo 11649"><path id="Trazado_12557" data-name="Trazado 12557" class="cls-13" d="M475.51,565.94h-1.82a10.77,10.77,0,0,0,0-11.86h1.82a9.79,9.79,0,0,1,0,11.86" transform="translate(-292 -343.33)"/></g><g id="Grupo_11650" data-name="Grupo 11650"><path id="Trazado_12558" data-name="Trazado 12558" class="cls-13" d="M340.46,615.94c-2.92,0-4.71-1.91-4.71-5.09s1.79-5,4.66-5a4,4,0,0,1,4.29,3.32h-2.05a2.21,2.21,0,0,0-2.23-1.63c-1.62,0-2.58,1.23-2.58,3.3s1,3.42,2.65,3.42a2.11,2.11,0,0,0,2.29-1.91.49.49,0,0,0,0-.12v-.16h-2.13v-1.49h4.12v1.1a4,4,0,0,1-3.6,4.28,4.45,4.45,0,0,1-.73,0" transform="translate(-292 -343.33)"/></g><g id="Grupo_11651" data-name="Grupo 11651"><path id="Trazado_12559" data-name="Trazado 12559" class="cls-13" d="M348.18,612.12a1.9,1.9,0,0,0,1.72,2.06,1.82,1.82,0,0,0,.33,0,1.9,1.9,0,0,0,2-1.74,1.71,1.71,0,0,0,0-.32V606h2v6.32c0,2.15-1.59,3.62-4.09,3.62s-4.1-1.47-4.1-3.62V606h2.05Z" transform="translate(-292 -343.33)"/></g><g id="Grupo_11652" data-name="Grupo 11652"><path id="Trazado_12560" data-name="Trazado 12560" class="cls-13" d="M357.55,613c.1.8.94,1.33,2,1.33s1.84-.52,1.84-1.24-.47-1-1.65-1.25l-1.27-.28c-1.8-.38-2.69-1.3-2.69-2.73,0-1.8,1.56-3,3.74-3s3.7,1.17,3.73,2.94h-1.91c-.07-.83-.79-1.33-1.82-1.33s-1.68.48-1.68,1.21.47.94,1.6,1.2l1.18.25c2,.42,2.81,1.26,2.81,2.75,0,1.9-1.54,3.09-4,3.09s-3.85-1.12-3.91-3Z" transform="translate(-292 -343.33)"/></g></g></g><g id="Grupo_11654" data-name="Grupo 11654"><path id="Trazado_12562" data-name="Trazado 12562" class="cls-13" d="M367,615.77v-8.09h-2.83V606h7.7v1.68h-2.83v8.09Z" transform="translate(-292 -343.33)"/></g><g id="Grupo_11655" data-name="Grupo 11655"><path id="Trazado_12563" data-name="Trazado 12563" class="cls-13" d="M377.38,613.4h-3.44l-.74,2.37h-2.1l3.39-9.77h2.4l3.4,9.77h-2.17Zm-3-1.53h2.56l-1.26-4h0Z" transform="translate(-292 -343.33)"/></g><g id="Grupo_11656" data-name="Grupo 11656"><path id="Trazado_12564" data-name="Trazado 12564" class="cls-13" d="M382.9,615.77,379.62,606h2.29l2.23,7.66h.05l2.23-7.66h2.23l-3.28,9.77Z" transform="translate(-292 -343.33)"/></g><g class="cls-7"><g id="Grupo_11659" data-name="Grupo 11659"><g id="Grupo_11657" data-name="Grupo 11657"><path id="Trazado_12565" data-name="Trazado 12565" class="cls-13" d="M398.63,610.89c0,3.11-1.82,5.05-4.71,5.05s-4.72-1.94-4.72-5.05,1.82-5.06,4.72-5.06,4.71,1.94,4.71,5.06m-7.34,0c0,2,1,3.34,2.63,3.34s2.62-1.3,2.62-3.34-1-3.35-2.62-3.35-2.63,1.3-2.63,3.35" transform="translate(-292 -343.33)"/></g><g id="Grupo_11658" data-name="Grupo 11658"><path id="Trazado_12566" data-name="Trazado 12566" class="cls-13" d="M402.38,610.88c0-3.15,1.79-5,4.62-5a4,4,0,0,1,4.3,3.68h-2a2.28,2.28,0,0,0-2.3-2c-1.55,0-2.55,1.3-2.55,3.35s1,3.38,2.55,3.38a2.21,2.21,0,0,0,2.3-1.87h2a4,4,0,0,1-4.3,3.56c-2.84,0-4.62-1.9-4.62-5.06" transform="translate(-292 -343.33)"/></g></g></g><g id="Grupo_11660" data-name="Grupo 11660"><path id="Trazado_12568" data-name="Trazado 12568" class="cls-13" d="M417.88,613.4h-3.44l-.74,2.37h-2.1L415,606h2.4l3.4,9.77h-2.17Zm-3-1.53h2.56l-1.26-4h0Z" transform="translate(-292 -343.33)"/></g><g id="Grupo_11661" data-name="Grupo 11661"><path id="Trazado_12569" data-name="Trazado 12569" class="cls-13" d="M421.79,615.77V606h1.71l4.56,6.36h.06V606h1.95v9.77h-1.69l-4.57-6.4h-.06v6.4Z" transform="translate(-292 -343.33)"/></g><g id="Grupo_11662" data-name="Grupo 11662"><path id="Trazado_12570" data-name="Trazado 12570" class="cls-13" d="M434,615.77v-8.09h-2.82V606h7.7v1.68h-2.84v8.09Z" transform="translate(-292 -343.33)"/></g><g class="cls-7"><g id="Grupo_11666" data-name="Grupo 11666"><g id="Grupo_11663" data-name="Grupo 11663"><path id="Trazado_12571" data-name="Trazado 12571" class="cls-13" d="M448.62,610.89c0,3.11-1.83,5.05-4.72,5.05s-4.71-1.94-4.71-5.05,1.82-5.06,4.71-5.06,4.72,1.94,4.72,5.06m-7.34,0c0,2,1,3.34,2.62,3.34s2.62-1.3,2.62-3.34-1-3.35-2.62-3.35-2.62,1.3-2.62,3.35" transform="translate(-292 -343.33)"/></g><g id="Grupo_11664" data-name="Grupo 11664"><path id="Trazado_12572" data-name="Trazado 12572" class="cls-13" d="M455.1,606h1.82a10.17,10.17,0,0,0-1.79,5.92,10.33,10.33,0,0,0,1.79,6H455.1a9.77,9.77,0,0,1,0-11.87" transform="translate(-292 -343.33)"/></g><g id="Grupo_11665" data-name="Grupo 11665"><path id="Trazado_12573" data-name="Trazado 12573" class="cls-13" d="M461.34,605.78c2.06,0,3.47,1.2,3.47,2.83,0,1.22-.81,2.13-1.89,3.2l-2.38,2.3v0H465v1.62h-7.1V614.4l3.68-3.55c1-1,1.29-1.48,1.29-2.17a1.42,1.42,0,0,0-1.5-1.31h-.05a1.56,1.56,0,0,0-1.64,1.48V609h-1.9v0c0-1.85,1.47-3.16,3.61-3.16" transform="translate(-292 -343.33)"/></g></g></g><g id="Grupo_11667" data-name="Grupo 11667"><path id="Trazado_12575" data-name="Trazado 12575" class="cls-13" d="M470.92,607.67v0h-5V606h7v1.65l-4.07,8.12h-2.15Z" transform="translate(-292 -343.33)"/></g><g class="cls-7"><g id="Grupo_11671" data-name="Grupo 11671"><g id="Grupo_11668" data-name="Grupo 11668"><path id="Trazado_12576" data-name="Trazado 12576" class="cls-13" d="M475.51,617.87h-1.82a10.78,10.78,0,0,0,0-11.87h1.82a9.81,9.81,0,0,1,0,11.87" transform="translate(-292 -343.33)"/></g><g id="Grupo_11669" data-name="Grupo 11669"><path id="Trazado_12577" data-name="Trazado 12577" class="cls-13" d="M346.9,664.82a1.25,1.25,0,0,0,1.17,1.31h.13c.85,0,1.32-.53,1.32-1.51v-6.7h2v6.71a3.34,3.34,0,0,1-6.62.58,2.55,2.55,0,0,1,0-.39Z" transform="translate(-292 -343.33)"/></g><g id="Grupo_11670" data-name="Grupo 11670"><path id="Trazado_12578" data-name="Trazado 12578" class="cls-13" d="M362.38,662.81c0,3.11-1.82,5.05-4.71,5.05s-4.72-1.94-4.72-5.05,1.82-5,4.72-5,4.71,1.94,4.71,5m-7.34,0c0,2.05,1,3.34,2.63,3.34s2.62-1.29,2.62-3.34-1-3.35-2.62-3.35-2.63,1.3-2.63,3.35" transform="translate(-292 -343.33)"/></g></g></g><g id="Grupo_11672" data-name="Grupo 11672"><path id="Trazado_12580" data-name="Trazado 12580" class="cls-13" d="M363.69,667.69v-9.77h1.71l4.56,6.37H370v-6.37h2v9.77h-1.69l-4.57-6.4h-.06v6.4Z" transform="translate(-292 -343.33)"/></g><g id="Grupo_11673" data-name="Grupo 11673"><path id="Trazado_12581" data-name="Trazado 12581" class="cls-13" d="M379.25,665.32h-3.43l-.75,2.37H373l3.4-9.77h2.4l3.4,9.77H380Zm-3-1.53h2.55l-1.25-4h-.05Z" transform="translate(-292 -343.33)"/></g><g id="Grupo_11674" data-name="Grupo 11674"><path id="Trazado_12582" data-name="Trazado 12582" class="cls-13" d="M384.18,667.69v-8.08h-2.82v-1.69h7.7v1.69h-2.84v8.08Z" transform="translate(-292 -343.33)"/></g><g id="Grupo_11675" data-name="Grupo 11675"><path id="Trazado_12583" data-name="Trazado 12583" class="cls-13" d="M396.63,667.69v-4.11h-4.4v4.11h-2.05v-9.77h2.05v4h4.4v-4h2.05v9.77Z" transform="translate(-292 -343.33)"/></g><g id="Grupo_11676" data-name="Grupo 11676"><path id="Trazado_12584" data-name="Trazado 12584" class="cls-13" d="M406,665.32h-3.43l-.74,2.37h-2.1l3.39-9.77h2.4l3.4,9.77H406.7Zm-3-1.53h2.56l-1.26-4h-.05Z" transform="translate(-292 -343.33)"/></g><g id="Grupo_11677" data-name="Grupo 11677"><path id="Trazado_12585" data-name="Trazado 12585" class="cls-13" d="M409.87,667.69v-9.77h1.71l4.56,6.37h.05v-6.37h2v9.77h-1.69l-4.57-6.4h-.06v6.4Z" transform="translate(-292 -343.33)"/></g><g class="cls-7"><g id="Grupo_11679" data-name="Grupo 11679"><g id="Grupo_11678" data-name="Grupo 11678"><path id="Trazado_12586" data-name="Trazado 12586" class="cls-13" d="M422.52,667.69v-9.77h4.25c1.83,0,3,1,3,2.44a2.13,2.13,0,0,1-1.83,2.12v.06a2.37,2.37,0,0,1,2.3,2.36c0,1.72-1.3,2.8-3.38,2.8Zm2-5.7H426c1.09,0,1.71-.48,1.71-1.31s-.54-1.23-1.5-1.23h-1.68Zm1.76,4.18c1.18,0,1.82-.5,1.82-1.44s-.66-1.4-1.87-1.4h-1.71v2.84Z" transform="translate(-292 -343.33)"/></g></g></g><g id="Grupo_11680" data-name="Grupo 11680"><path id="Trazado_12588" data-name="Trazado 12588" class="cls-13" d="M437,665.32h-3.43l-.75,2.37h-2.1l3.39-9.77h2.41l3.4,9.77h-2.18Zm-3-1.53h2.56l-1.25-4h-.05Z" transform="translate(-292 -343.33)"/></g><g id="Grupo_11681" data-name="Grupo 11681"><path id="Trazado_12589" data-name="Trazado 12589" class="cls-13" d="M442.37,667.69V664l-3.4-6.12h2.23l2.19,4.18h.05l2.19-4.18h2.19l-3.4,6.12v3.65Z" transform="translate(-292 -343.33)"/></g><g class="cls-7"><g id="Grupo_11687" data-name="Grupo 11687"><g id="Grupo_11682" data-name="Grupo 11682"><path id="Trazado_12590" data-name="Trazado 12590" class="cls-13" d="M454,657.92h1.82a10.73,10.73,0,0,0,0,11.87H454a9.77,9.77,0,0,1,0-11.87" transform="translate(-292 -343.33)"/></g><g id="Grupo_11683" data-name="Grupo 11683"><path id="Trazado_12591" data-name="Trazado 12591" class="cls-13" d="M460.23,657.71c2.06,0,3.47,1.19,3.47,2.82,0,1.22-.81,2.13-1.89,3.2l-2.38,2.3v0h4.41v1.62h-7.1v-1.37l3.68-3.55c1-1,1.29-1.48,1.29-2.16a1.42,1.42,0,0,0-1.51-1.32h0a1.55,1.55,0,0,0-1.64,1.47.27.27,0,0,0,0,.09v0h-1.9v0c0-1.85,1.47-3.15,3.61-3.15" transform="translate(-292 -343.33)"/></g><g id="Grupo_11684" data-name="Grupo 11684"><path id="Trazado_12592" data-name="Trazado 12592" class="cls-13" d="M465,665.05a2.54,2.54,0,0,1,2.29-2.5v0a2.31,2.31,0,0,1-1.9-2.22c0-1.49,1.48-2.58,3.57-2.58s3.56,1.08,3.56,2.58a2.3,2.3,0,0,1-1.9,2.21v0a2.57,2.57,0,0,1,2.3,2.51c0,1.69-1.61,2.86-4,2.86s-4-1.17-4-2.86m5.78-.15a1.62,1.62,0,0,0-1.71-1.53h-.11a1.64,1.64,0,0,0-1.82,1.43s0,.06,0,.1a1.63,1.63,0,0,0,1.73,1.53h.1a1.62,1.62,0,0,0,1.81-1.41s0-.08,0-.11m-.28-4.36a1.41,1.41,0,0,0-1.45-1.36h-.09a1.41,1.41,0,0,0-1.54,1.27s0,.06,0,.09a1.4,1.4,0,0,0,1.45,1.35h.1a1.41,1.41,0,0,0,1.53-1.26s0-.06,0-.09" transform="translate(-292 -343.33)"/></g><g id="Grupo_11685" data-name="Grupo 11685"><path id="Trazado_12593" data-name="Trazado 12593" class="cls-13" d="M475.51,669.79h-1.82a10.78,10.78,0,0,0,0-11.87h1.82a9.81,9.81,0,0,1,0,11.87" transform="translate(-292 -343.33)"/></g><g id="Grupo_11686" data-name="Grupo 11686"><path id="Trazado_12594" data-name="Trazado 12594" class="cls-13" d="M352.93,715.09c0-3.15,1.79-5.05,4.62-5.05a4,4,0,0,1,4.29,3.67h-2a2.25,2.25,0,0,0-2.3-2c-1.54,0-2.54,1.29-2.54,3.35s1,3.37,2.55,3.37a2.2,2.2,0,0,0,2.3-1.87h2a4,4,0,0,1-4.3,3.57c-2.84,0-4.62-1.91-4.62-5.06" transform="translate(-292 -343.33)"/></g></g></g><g id="Grupo_11688" data-name="Grupo 11688"><path id="Trazado_12596" data-name="Trazado 12596" class="cls-13" d="M369.58,720h-6.47v-9.77h6.47v1.68h-4.42v2.36h4.17v1.57h-4.17v2.47h4.42Z" transform="translate(-292 -343.33)"/></g><g class="cls-7"><g id="Grupo_11690" data-name="Grupo 11690"><g id="Grupo_11689" data-name="Grupo 11689"><path id="Trazado_12597" data-name="Trazado 12597" class="cls-13" d="M372.66,717.19c.1.81.94,1.34,2,1.34s1.84-.52,1.84-1.24-.47-1-1.65-1.25l-1.27-.28c-1.8-.39-2.69-1.3-2.69-2.73,0-1.8,1.56-3,3.74-3s3.7,1.17,3.73,2.93h-1.91c-.07-.82-.79-1.32-1.81-1.32s-1.69.48-1.69,1.2.47.94,1.6,1.2l1.18.26c2,.41,2.81,1.25,2.81,2.74,0,1.9-1.53,3.1-4,3.1s-3.85-1.12-3.91-3Z" transform="translate(-292 -343.33)"/></g></g></g><g id="Grupo_11691" data-name="Grupo 11691"><path id="Trazado_12599" data-name="Trazado 12599" class="cls-13" d="M385.26,717.6h-3.43l-.74,2.37H379l3.39-9.77h2.4l3.4,9.77H386Zm-3-1.52h2.55l-1.25-4h-.05Z" transform="translate(-292 -343.33)"/></g><g class="cls-7"><g id="Grupo_11693" data-name="Grupo 11693"><g id="Grupo_11692" data-name="Grupo 11692"><path id="Trazado_12600" data-name="Trazado 12600" class="cls-13" d="M391.22,720h-2v-9.77h4c2.25,0,3.53,1.18,3.53,3.11a2.87,2.87,0,0,1-1.77,2.78L397,720h-2.32l-1.82-3.58h-1.64Zm0-5.06H393a1.47,1.47,0,0,0,1.63-1.29,2.44,2.44,0,0,0,0-.27,1.5,1.5,0,0,0-1.44-1.56h-2Z" transform="translate(-292 -343.33)"/></g></g></g><path id="Trazado_12602" data-name="Trazado 12602" class="cls-13" d="M400.8,710.21h2V720h-2Z" transform="translate(-292 -343.33)"/><g class="cls-7"><g id="Grupo_11695" data-name="Grupo 11695"><g id="Grupo_11694" data-name="Grupo 11694"><path id="Trazado_12603" data-name="Trazado 12603" class="cls-13" d="M404.46,720v-9.77h4.26c1.83,0,3,.94,3,2.43a2.13,2.13,0,0,1-1.84,2.12v.06a2.36,2.36,0,0,1,2.3,2.36c0,1.72-1.29,2.8-3.37,2.8Zm2.05-5.71H408c1.09,0,1.71-.48,1.71-1.31s-.55-1.23-1.5-1.23h-1.68Zm1.76,4.18c1.18,0,1.81-.5,1.81-1.43s-.65-1.4-1.86-1.4h-1.71v2.83Z" transform="translate(-292 -343.33)"/></g></g></g><g id="Grupo_11696" data-name="Grupo 11696"><path id="Trazado_12605" data-name="Trazado 12605" class="cls-13" d="M419,717.6h-3.44l-.74,2.37h-2.1l3.39-9.77h2.4l3.4,9.77h-2.17Zm-3-1.52h2.55l-1.26-4h0Z" transform="translate(-292 -343.33)"/></g><g class="cls-7"><g id="Grupo_11698" data-name="Grupo 11698"><g id="Grupo_11697" data-name="Grupo 11697"><path id="Trazado_12606" data-name="Trazado 12606" class="cls-13" d="M422.9,720v-9.77h1.71l4.56,6.36h.06v-6.36h1.95V720h-1.69l-4.57-6.4h-.06V720Zm3.31-11.5c-.31,0-.47.33-.47.82h-1.08c0-1.19.65-1.85,1.49-1.85s1.31.91,1.8.91c.3,0,.45-.3.46-.84h1.08c0,1.17-.66,1.88-1.48,1.88s-1.3-.92-1.8-.92" transform="translate(-292 -343.33)"/></g></g></g><g id="Grupo_11699" data-name="Grupo 11699"><path id="Trazado_12608" data-name="Trazado 12608" class="cls-13" d="M439.28,720h-6.47v-9.77h6.47v1.68h-4.43v2.36H439v1.57h-4.18v2.47h4.43Z" transform="translate(-292 -343.33)"/></g><g id="Grupo_11700" data-name="Grupo 11700"><path id="Trazado_12609" data-name="Trazado 12609" class="cls-13" d="M440.55,718.64l5-6.7v-.05h-4.85v-1.68H448v1.32L443,718.24v0h5.08V720h-7.54Z" transform="translate(-292 -343.33)"/></g><g class="cls-7"><g id="Grupo_11705" data-name="Grupo 11705"><g id="Grupo_11701" data-name="Grupo 11701"><path id="Trazado_12610" data-name="Trazado 12610" class="cls-13" d="M454.68,710.21h1.81a10.24,10.24,0,0,0-1.79,5.92,10.43,10.43,0,0,0,1.79,6h-1.81a9.73,9.73,0,0,1,0-11.87" transform="translate(-292 -343.33)"/></g><g id="Grupo_11702" data-name="Grupo 11702"><path id="Trazado_12611" data-name="Trazado 12611" class="cls-13" d="M460.91,710c2.06,0,3.47,1.19,3.47,2.82,0,1.22-.81,2.14-1.89,3.2l-2.38,2.3v0h4.41V720h-7.1V718.6l3.68-3.55c1-1,1.29-1.48,1.29-2.16a1.4,1.4,0,0,0-1.5-1.31h-.05a1.56,1.56,0,0,0-1.64,1.47v.13h-1.9v0c0-1.85,1.48-3.16,3.61-3.16" transform="translate(-292 -343.33)"/></g><g id="Grupo_11703" data-name="Grupo 11703"><path id="Trazado_12612" data-name="Trazado 12612" class="cls-13" d="M469.27,710c2.06,0,3.48,1.19,3.48,2.82,0,1.22-.82,2.14-1.89,3.2l-2.39,2.3v0h4.42V720h-7.1V718.6l3.67-3.55c1-1,1.3-1.48,1.3-2.16a1.41,1.41,0,0,0-1.51-1.31h-.05a1.56,1.56,0,0,0-1.64,1.47v.13h-1.9v0c0-1.85,1.48-3.16,3.61-3.16" transform="translate(-292 -343.33)"/></g><g id="Grupo_11704" data-name="Grupo 11704"><path id="Trazado_12613" data-name="Trazado 12613" class="cls-13" d="M475.51,722.08h-1.82a10,10,0,0,0,1.78-6,9.93,9.93,0,0,0-1.78-5.92h1.82a8.58,8.58,0,0,1,2,5.93,8.69,8.69,0,0,1-2,5.94" transform="translate(-292 -343.33)"/></g></g></g><g id="Grupo_11706" data-name="Grupo 11706"><path id="Trazado_12615" data-name="Trazado 12615" class="cls-13" d="M312,771.54v-9.77h6.4v1.69H314v2.62h4v1.62h-4v3.84Z" transform="translate(-292 -343.33)"/></g><g class="cls-7"><g id="Grupo_11708" data-name="Grupo 11708"><g id="Grupo_11707" data-name="Grupo 11707"><path id="Trazado_12616" data-name="Trazado 12616" class="cls-13" d="M321.6,771.54h-2v-9.77h4c2.24,0,3.53,1.19,3.53,3.12a2.88,2.88,0,0,1-1.77,2.77l2.06,3.88h-2.32L323.24,768H321.6Zm0-5h1.76A1.48,1.48,0,0,0,325,765.2a1.22,1.22,0,0,0,0-.27,1.5,1.5,0,0,0-1.43-1.57h-2Z" transform="translate(-292 -343.33)"/></g></g></g><g id="Grupo_11709" data-name="Grupo 11709"><path id="Trazado_12618" data-name="Trazado 12618" class="cls-13" d="M334.09,769.17h-3.44l-.74,2.37h-2.1l3.39-9.77h2.4l3.4,9.77h-2.17Zm-3-1.53h2.56l-1.26-4h0Z" transform="translate(-292 -343.33)"/></g><g id="Grupo_11710" data-name="Grupo 11710"><path id="Trazado_12619" data-name="Trazado 12619" class="cls-13" d="M338,771.54v-9.77h1.71l4.56,6.37h.05v-6.37h2v9.77h-1.69l-4.57-6.4H340v6.4Z" transform="translate(-292 -343.33)"/></g><g class="cls-7"><g id="Grupo_11715" data-name="Grupo 11715"><g id="Grupo_11711" data-name="Grupo 11711"><path id="Trazado_12620" data-name="Trazado 12620" class="cls-13" d="M347.6,766.65c0-3.14,1.79-5,4.62-5a4,4,0,0,1,4.3,3.68h-2a2.25,2.25,0,0,0-2.3-2c-1.54,0-2.53,1.29-2.53,3.35s1,3.37,2.54,3.37a2.21,2.21,0,0,0,2.3-1.87h2a4,4,0,0,1-4.3,3.56c-2.84,0-4.62-1.9-4.62-5.06" transform="translate(-292 -343.33)"/></g><g id="Grupo_11712" data-name="Grupo 11712"><path id="Trazado_12621" data-name="Trazado 12621" class="cls-13" d="M366.9,766.66c0,3.11-1.82,5.05-4.71,5.05s-4.71-1.94-4.71-5.05,1.81-5.06,4.71-5.06,4.71,1.95,4.71,5.06m-7.34,0c0,2.05,1,3.34,2.63,3.34s2.62-1.29,2.62-3.34-1-3.35-2.62-3.35-2.63,1.3-2.63,3.35" transform="translate(-292 -343.33)"/></g><g id="Grupo_11713" data-name="Grupo 11713"><path id="Trazado_12622" data-name="Trazado 12622" class="cls-13" d="M370.65,766.66c0-3.11,1.82-5.06,4.71-5.06s4.71,1.95,4.71,5.06a4.89,4.89,0,0,1-1.56,3.93l1.24,1.87h-2l-.7-1a4.94,4.94,0,0,1-1.71.27c-2.89,0-4.71-1.91-4.71-5.05m5.41,3.26-1.07-1.6h1.85l.43.59a3.38,3.38,0,0,0,.71-2.25c0-2-1-3.37-2.62-3.37s-2.62,1.32-2.62,3.37,1,3.36,2.62,3.36a2.32,2.32,0,0,0,.7-.1" transform="translate(-292 -343.33)"/></g><g id="Grupo_11714" data-name="Grupo 11714"><path id="Trazado_12623" data-name="Trazado 12623" class="cls-13" d="M383.44,767.89a1.9,1.9,0,0,0,1.71,2.07h.34a1.9,1.9,0,0,0,2-1.74,1.82,1.82,0,0,0,0-.33v-6.12h2.05v6.32c0,2.16-1.59,3.62-4.09,3.62s-4.1-1.46-4.1-3.62v-6.32h2.05Z" transform="translate(-292 -343.33)"/></g></g></g><path id="Trazado_12625" data-name="Trazado 12625" class="cls-13" d="M391.2,761.77h2.05v9.77H391.2Z" transform="translate(-292 -343.33)"/><g id="Grupo_11716" data-name="Grupo 11716"><path id="Trazado_12626" data-name="Trazado 12626" class="cls-13" d="M394.87,771.54v-9.77h1.71l4.56,6.37h.05v-6.37h2v9.77h-1.69l-4.57-6.4h-.06v6.4Z" transform="translate(-292 -343.33)"/></g><g id="Grupo_11717" data-name="Grupo 11717"><path id="Trazado_12627" data-name="Trazado 12627" class="cls-13" d="M407.11,771.54v-8.08h-2.82v-1.69H412v1.69h-2.84v8.08Z" transform="translate(-292 -343.33)"/></g><g id="Grupo_11718" data-name="Grupo 11718"><path id="Trazado_12628" data-name="Trazado 12628" class="cls-13" d="M419.59,771.54h-6.47v-9.77h6.47v1.69h-4.43v2.36h4.18v1.57h-4.18v2.46h4.43Z" transform="translate(-292 -343.33)"/></g><g class="cls-7"><g id="Grupo_11726" data-name="Grupo 11726"><g id="Grupo_11719" data-name="Grupo 11719"><path id="Trazado_12629" data-name="Trazado 12629" class="cls-13" d="M423.11,771.54h-2v-9.77h4c2.25,0,3.53,1.19,3.53,3.12a2.88,2.88,0,0,1-1.77,2.77l2.06,3.88h-2.32L424.75,768h-1.64Zm0-5h1.76a1.48,1.48,0,0,0,1.63-1.29,1.22,1.22,0,0,0,0-.27,1.5,1.5,0,0,0-1.43-1.57h-2Z" transform="translate(-292 -343.33)"/></g><g id="Grupo_11720" data-name="Grupo 11720"><path id="Trazado_12630" data-name="Trazado 12630" class="cls-13" d="M439.06,766.66c0,3.11-1.82,5.05-4.71,5.05s-4.71-1.94-4.71-5.05,1.81-5.06,4.71-5.06,4.71,1.95,4.71,5.06m-7.34,0c0,2.05,1,3.34,2.63,3.34s2.62-1.29,2.62-3.34-1-3.35-2.62-3.35-2.63,1.3-2.63,3.35" transform="translate(-292 -343.33)"/></g><g id="Grupo_11721" data-name="Grupo 11721"><path id="Trazado_12631" data-name="Trazado 12631" class="cls-13" d="M442,768.76c.1.81.94,1.33,2,1.33s1.83-.52,1.83-1.24-.46-1-1.64-1.25l-1.27-.28c-1.81-.38-2.69-1.29-2.69-2.72,0-1.8,1.56-3,3.73-3s3.7,1.17,3.74,2.94h-1.91c-.07-.82-.8-1.33-1.82-1.33s-1.68.49-1.68,1.21.47.94,1.6,1.2l1.18.25c2,.42,2.81,1.26,2.81,2.75,0,1.9-1.54,3.09-4,3.09s-3.85-1.11-3.91-3Z" transform="translate(-292 -343.33)"/></g><g id="Grupo_11722" data-name="Grupo 11722"><path id="Trazado_12632" data-name="Trazado 12632" class="cls-13" d="M454.3,761.77h1.82a10.73,10.73,0,0,0,0,11.87H454.3a9.77,9.77,0,0,1,0-11.87" transform="translate(-292 -343.33)"/></g><g id="Grupo_11723" data-name="Grupo 11723"><path id="Trazado_12633" data-name="Trazado 12633" class="cls-13" d="M460.54,761.56c2.06,0,3.47,1.19,3.47,2.82,0,1.22-.81,2.13-1.89,3.2l-2.38,2.3v0h4.41v1.62h-7.1v-1.37l3.68-3.55c1-1,1.29-1.48,1.29-2.16a1.41,1.41,0,0,0-1.5-1.32h0a1.56,1.56,0,0,0-1.64,1.47v.13h-1.9v0c0-1.85,1.48-3.15,3.61-3.15" transform="translate(-292 -343.33)"/></g><g id="Grupo_11724" data-name="Grupo 11724"><path id="Trazado_12634" data-name="Trazado 12634" class="cls-13" d="M467.78,765.8H469a1.4,1.4,0,0,0,1.55-1.23.57.57,0,0,0,0-.13c0-.79-.56-1.31-1.58-1.31a1.48,1.48,0,0,0-1.62,1.34.15.15,0,0,1,0,.07h-1.88c.08-1.81,1.48-3,3.6-3s3.42,1,3.42,2.6a2.29,2.29,0,0,1-2,2.29v0a2.33,2.33,0,0,1,2.4,2.27.22.22,0,0,1,0,.08c0,1.76-1.59,2.92-3.84,2.92s-3.65-1.21-3.74-3h1.95c.06.82.74,1.36,1.81,1.36s1.74-.58,1.74-1.4-.67-1.44-1.77-1.44h-1.21Z" transform="translate(-292 -343.33)"/></g><g id="Grupo_11725" data-name="Grupo 11725"><path id="Trazado_12635" data-name="Trazado 12635" class="cls-13" d="M475.51,773.64h-1.82a10.78,10.78,0,0,0,0-11.87h1.82a9.81,9.81,0,0,1,0,11.87" transform="translate(-292 -343.33)"/></g></g></g><path id="Trazado_12637" data-name="Trazado 12637" class="cls-14" d="M1438.19,438.41H492.46v38.32h945.73Z" transform="translate(-292 -343.33)"/><g class="cls-7"><g id="Grupo_11728" data-name="Grupo 11728"><g id="Grupo_11727" data-name="Grupo 11727"><path id="Trazado_12638" data-name="Trazado 12638" class="cls-13" d="M929.83,460.92v-.86c-2.12-.12-3.42-1.19-3.42-2.85h1.93a1.51,1.51,0,0,0,1.49,1.31v-2.64l-.71-.17c-1.64-.38-2.5-1.32-2.5-2.73,0-1.66,1.19-2.73,3.22-2.89v-.93h.95v.94c1.9.17,3.12,1.28,3.14,2.83h-1.88a1.39,1.39,0,0,0-1.26-1.27v2.53l.72.14c1.74.38,2.6,1.28,2.6,2.75,0,1.72-1.2,2.79-3.32,3v.87Zm0-6.93v-2.33a1.21,1.21,0,0,0-1.26,1.15c0,.6.44,1,1.26,1.18m1,2.06v2.48c.89-.06,1.41-.52,1.41-1.23s-.45-1.06-1.41-1.25" transform="translate(-292 -343.33)"/></g></g></g><g id="Grupo_11729" data-name="Grupo 11729"><path id="Trazado_12640" data-name="Trazado 12640" class="cls-13" d="M940.63,452.1h0l-2.5,1.72V452l2.52-1.75h2V460h-2Z" transform="translate(-292 -343.33)"/></g><g class="cls-7"><g id="Grupo_11738" data-name="Grupo 11738"><g id="Grupo_11730" data-name="Grupo 11730"><path id="Trazado_12641" data-name="Trazado 12641" class="cls-13" d="M944.82,459a1.07,1.07,0,0,1,1.07-1.09h0A1.08,1.08,0,0,1,947,459h0a1.09,1.09,0,0,1-1.09,1.09h0a1.08,1.08,0,0,1-1.09-1.08h0" transform="translate(-292 -343.33)"/></g><g id="Grupo_11731" data-name="Grupo 11731"><path id="Trazado_12642" data-name="Trazado 12642" class="cls-13" d="M948.55,457.2h1.89a1.69,1.69,0,0,0,1.8,1.39A1.72,1.72,0,0,0,954,457a.43.43,0,0,0,0-.16,1.73,1.73,0,0,0-1.63-1.84h-.16a1.91,1.91,0,0,0-1.71.9h-1.83l.48-5.62h6.21v1.62h-4.61l-.22,2.68h0a2.42,2.42,0,0,1,2.17-1.07,3.14,3.14,0,0,1,3.22,3,1.69,1.69,0,0,1,0,.23,3.45,3.45,0,0,1-3.41,3.5l-.36,0c-2.1,0-3.61-1.24-3.67-3" transform="translate(-292 -343.33)"/></g><g id="Grupo_11732" data-name="Grupo 11732"><path id="Trazado_12643" data-name="Trazado 12643" class="cls-13" d="M957,455.09c0-3.15,1.51-5.09,4-5.09s3.94,1.93,3.94,5.09-1.49,5.12-3.94,5.12-4-1.95-4-5.12m5.83,0c0-2.2-.72-3.45-1.87-3.45s-1.88,1.25-1.88,3.45.71,3.48,1.88,3.48,1.87-1.25,1.87-3.48" transform="translate(-292 -343.33)"/></g><g id="Grupo_11733" data-name="Grupo 11733"><path id="Trazado_12644" data-name="Trazado 12644" class="cls-13" d="M966,455.09c0-3.15,1.51-5.09,4-5.09s3.95,1.93,3.95,5.09-1.49,5.12-3.95,5.12-4-1.95-4-5.12m5.82,0c0-2.2-.71-3.45-1.87-3.45s-1.87,1.25-1.87,3.45.71,3.48,1.87,3.48,1.87-1.25,1.87-3.48" transform="translate(-292 -343.33)"/></g><g id="Grupo_11734" data-name="Grupo 11734"><path id="Trazado_12645" data-name="Trazado 12645" class="cls-13" d="M975,459a1.08,1.08,0,0,1,1.08-1.09h0a1.08,1.08,0,0,1,1.09,1.08h0a1.08,1.08,0,0,1-1.08,1.09h0A1.08,1.08,0,0,1,975,459h0" transform="translate(-292 -343.33)"/></g><g id="Grupo_11735" data-name="Grupo 11735"><path id="Trazado_12646" data-name="Trazado 12646" class="cls-13" d="M978.36,455.09c0-3.15,1.51-5.09,4-5.09s3.94,1.93,3.94,5.09-1.48,5.12-3.94,5.12-4-1.95-4-5.12m5.83,0c0-2.2-.71-3.45-1.87-3.45s-1.88,1.25-1.88,3.45.71,3.48,1.88,3.48,1.87-1.25,1.87-3.48" transform="translate(-292 -343.33)"/></g><g id="Grupo_11736" data-name="Grupo 11736"><path id="Trazado_12647" data-name="Trazado 12647" class="cls-13" d="M987.39,455.09c0-3.15,1.51-5.09,4-5.09s3.95,1.93,3.95,5.09-1.49,5.12-3.95,5.12-4-1.95-4-5.12m5.82,0c0-2.2-.71-3.45-1.87-3.45s-1.87,1.25-1.87,3.45.71,3.48,1.87,3.48,1.87-1.25,1.87-3.48" transform="translate(-292 -343.33)"/></g><g id="Grupo_11737" data-name="Grupo 11737"><path id="Trazado_12648" data-name="Trazado 12648" class="cls-13" d="M996.41,455.09c0-3.15,1.51-5.09,4-5.09s3.94,1.93,3.94,5.09-1.48,5.12-3.94,5.12-4-1.95-4-5.12m5.83,0c0-2.2-.71-3.45-1.87-3.45s-1.88,1.25-1.88,3.45.71,3.48,1.88,3.48,1.87-1.25,1.87-3.48" transform="translate(-292 -343.33)"/></g></g></g></g><g id="Grupo_11478-3" data-name="Grupo 11478"><path id="Trazado_12373-3" data-name="Trazado 12373" class="cls-8" d="M776.78,646.11H492.46v38.32H776.78Z" transform="translate(-292 -343.33)"/></g><g id="Grupo_11478-4" data-name="Grupo 11478"><path id="Trazado_12373-4" data-name="Trazado 12373" class="cls-8" d="M791.91,594.18H492.46V632.5H791.91Z" transform="translate(-292 -343.33)"/></g><g id="Grupo_11478-5" data-name="Grupo 11478"><path id="Trazado_12373-5" data-name="Trazado 12373" class="cls-8" d="M965.32,542.26H492.46v38.32H965.32Z" transform="translate(-292 -343.33)"/></g><g id="Grupo_11478-6" data-name="Grupo 11478"><path id="Trazado_12373-6" data-name="Trazado 12373" class="cls-8" d="M997.11,490.33H492.46v38.32H997.11Z" transform="translate(-292 -343.33)"/></g><g id="Grupo_11478-7" data-name="Grupo 11478"><path id="Trazado_12373-7" data-name="Trazado 12373" class="cls-8" d="M1438.19,438.41H492.46v38.32h945.73Z" transform="translate(-292 -343.33)"/></g></svg>