<svg id="Capa_1" data-name="Capa 1" xmlns="http://www.w3.org/2000/svg" viewBox="0 0 235.63 245.45"><defs><style>.cls-1{fill:#fff;}</style></defs><path class="cls-1" d="M1071.58,417.2c1.19.21,2.39.35,3.56.63a13.92,13.92,0,0,1,10.63,11.67c.66,4.14.26,8.13-2.12,11.68s-5.48,5.85-9.73,6.31c-5.93.63-8.44-4.65-7.8-8.69.31-1.94.92-3.84,1.32-5.78a10.21,10.21,0,0,0-.1-5.12,4.07,4.07,0,0,0-3.87-3,17.1,17.1,0,0,0-8,1.86A56.25,56.25,0,0,0,1037,440.34a181,181,0,0,0-19.16,24.87q-10.91,16.68-21.84,33.34c-.19.29-.37.59-.68,1.09h1.26A64.33,64.33,0,0,1,1011,501c3.62.85,7.13,2.21,10.67,3.38,3.27,1.08,6.52,2.22,9.79,3.32a5.51,5.51,0,0,0,6.61-2.14,27,27,0,0,0,2.74-5c.34-.74.68-1,1.46-1,1,.06,1.91,0,2.94,0v42c-1.24,0-2.45,0-3.64,0-.25,0-.52-.54-.68-.88-1.63-3.57-3-7.28-4.9-10.69a45.26,45.26,0,0,0-18.51-18.38,38.71,38.71,0,0,0-25.29-3.81c-2.45.43-4.86,1.05-7.29,1.57-.24.06-.49.06-.94.12a10.92,10.92,0,0,1,.5-1c9.34-14.27,18.62-28.59,28.07-42.79a255.5,255.5,0,0,1,20.61-27.52A73.54,73.54,0,0,1,1050.94,423a38,38,0,0,1,16.93-5.61,3.71,3.71,0,0,0,.64-.15Z" transform="translate(-850.42 -417.2)"/><path class="cls-1" d="M933.73,463.53v47c1.26,0,2.5,0,3.73,0,4.59-.13,9-.9,13-3.27,5-3,7.92-7.53,9.41-13,.7-2.58,1.1-5.24,1.56-7.88.11-.64.31-.87,1-.85,1,0,2,0,3.07,0,0,.42,0,.75,0,1.09q0,24.12,0,48.23a2.07,2.07,0,0,1-.21,1.09c-1.27,1.95-2.58,3.87-4,6-.22-1.16-.39-2.1-.59-3.05a33.6,33.6,0,0,0-4.12-11.07,20.37,20.37,0,0,0-15.28-9.75c-2.27-.32-4.59-.25-6.89-.36a4.72,4.72,0,0,0-.69.08,7.58,7.58,0,0,0-.07.77q0,19.85.05,39.69c0,2.25.17,4.47,1.5,6.43a10.33,10.33,0,0,0,7.67,4.34c1.18.16,2.39.19,3.75.29-.19.37-.3.65-.46.9-6.71,10.34-13.36,20.72-20.16,31-6.5,9.83-13.15,19.57-20.82,28.55-5.29,6.2-11,11.9-18,16.32-6.53,4.17-13.55,6.88-21.43,6.73-4.42-.09-8.45-1.26-11.54-4.7-5.78-6.44-5.85-19.92,5.15-24.72,2.47-1.08,5-1.36,7.47,0,3,1.66,4.3,5.72,3.17,9.35a21.51,21.51,0,0,0-1.21,7.71c.21,3.34,2.15,5,5.5,4.77a24.2,24.2,0,0,0,9.2-3.07A60.11,60.11,0,0,0,900.3,629,215.28,215.28,0,0,0,921,601.74c5-7.53,9.75-15.22,14.61-22.84l3.48-5.39H888.51v-4.24h1.59a27.94,27.94,0,0,0,7.52-.58,9.35,9.35,0,0,0,5.69-3.93,9.24,9.24,0,0,0,1.22-4.48c.16-2.07.26-4.15.26-6.22q0-40.8,0-81.59a23.67,23.67,0,0,0-.32-4.77c-1-4.4-3.9-6.86-8.55-7.34-1.21-.13-2.42-.15-3.63-.22-2.46-.12-3.82-1.58-3.76-4.1h99v33.89a3.29,3.29,0,0,1-4.18-2.14c-.4-1.17-.65-2.4-.94-3.61-1-4.13-2.3-8.13-5.09-11.44-3.57-4.22-8.31-6.48-13.57-7.77s-10.94-1.38-16.47-1.47c-4.22-.06-8.43,0-12.65,0C934.34,463.47,934.06,463.51,933.73,463.53Z" transform="translate(-850.42 -417.2)"/><path class="cls-1" d="M961.93,554.2c0,4.67-.13,9.21,0,13.74a80,80,0,0,0,4.33,24.8,35.94,35.94,0,0,0,7.47,12.61c5.31,5.65,12,8.5,19.57,9.54s15.15-.19,22.43-2.69a1,1,0,0,0,.82-1.16c0-8.27,0-16.55,0-24.83,0-1.21-.11-2.42-.17-3.64a7.79,7.79,0,0,0-4.88-7,14.18,14.18,0,0,0-5.84-1.31c-1.31,0-2.62,0-4,0v-4.21h1.08q27.62,0,55.23,0c.94,0,1.27.29,1.13,1.19a1.31,1.31,0,0,0,0,.28c0,.89.22,2.09-.24,2.56s-1.69.23-2.57.38a37.78,37.78,0,0,0-4.87,1,7.88,7.88,0,0,0-5.89,7.74c-.15,3.57-.18,7.15-.2,10.73q0,8.82,0,17.64a1.22,1.22,0,0,1-.88,1.33,116.24,116.24,0,0,1-30.79,8.61,106.54,106.54,0,0,1-29.52.33c-17.16-2.46-31.48-10.09-42.46-23.64-1.6-2-2.9-4.21-4.35-6.31a.94.94,0,0,1,0-1.21q12.12-18,24.22-36A4.35,4.35,0,0,1,961.93,554.2Z" transform="translate(-850.42 -417.2)"/><path class="cls-1" d="M940.84,654.41c.22-1,.36-1.68.52-2.36.59-2.58,1.17-5.16,1.8-7.74.06-.26.39-.46.6-.7a3.3,3.3,0,0,1,.43.74c.34,1.26.53,2.58,1,3.79a6.37,6.37,0,0,0,6.43,4.36c3.33-.13,5.43-3.12,4.12-6.16a20.3,20.3,0,0,0-2.86-4.27c-1.31-1.68-2.93-3.14-4.14-4.88a7.35,7.35,0,0,1,.39-9.29,8.57,8.57,0,0,1,6.31-2.79,31.59,31.59,0,0,1,4.82.6c.72.11,1.43.33,2.15.49a2.78,2.78,0,0,0,2.65-.72,5.54,5.54,0,0,1,1.33-.63c-.83,3.28-1.56,6.25-2.33,9.2,0,.21-.41.35-.58.48A41.76,41.76,0,0,0,962,630.3a5.2,5.2,0,0,0-5-3.32,4.12,4.12,0,0,0-3.84,4.66,7.54,7.54,0,0,0,2,4c1.16,1.23,2.48,2.32,3.56,3.62a17.15,17.15,0,0,1,2.77,4.09c1.95,4.6-.58,9.11-5.7,10.51a17.22,17.22,0,0,1-7.79-.09c-.88-.16-1.76-.32-2.64-.45a4.59,4.59,0,0,0-3.21.64A7.52,7.52,0,0,1,940.84,654.41Z" transform="translate(-850.42 -417.2)"/><path class="cls-1" d="M985.07,638.82c-.2-3.62-3-5.22-6.31-3.66a23.36,23.36,0,0,0-2.73,1.75c-.31.2-.59.45-1.08.83l.82-3.15a3.15,3.15,0,0,0-.58-.07c-2.37.37-4.73.72-7.09,1.12-.22,0-.39.38-.71.7,2.37.37,2.5.56,2,2.66,0,.19-.08.38-.13.56-.8,2.82-1.59,5.65-2.41,8.46-1,3.4-2,6.8-3,10.19-.53,1.72-1.32,3.28-3.35,3.69-.19,0-.31.38-.59.75,3.76,0,7.3,0,10.83,0a.58.58,0,0,0,.42-.38c0-.13-.2-.34-.36-.42a4.23,4.23,0,0,0-.74-.21c-1.08-.38-1.5-.91-1.27-2,.43-2.05,1-4.07,1.5-6.17a7.29,7.29,0,0,0,7.61-.65C982.86,649.48,985.39,644.81,985.07,638.82Zm-8.92,12.41a7.66,7.66,0,0,1-1.53,1.42,2.17,2.17,0,0,1-3.08-.36,1.42,1.42,0,0,1-.39-1.55c1-3.42,2-6.86,3-10.26a4.47,4.47,0,0,1,3.11-2.87,1.67,1.67,0,0,1,2.23,1.25,12.65,12.65,0,0,1,.28,1.8C979.51,644.63,978.6,648.2,976.15,651.23Z" transform="translate(-850.42 -417.2)"/><path class="cls-1" d="M1006,640.25c-.09-2.81-1.69-5-4.29-5.49a9.9,9.9,0,0,0-3.68,0c-5.91,1.22-10.73,7.25-10.79,13.37A5.38,5.38,0,0,0,990,653.5a6.73,6.73,0,0,0,4.28.61C1000.59,653.27,1006.17,646.63,1006,640.25Zm-5.09-1.58a29.58,29.58,0,0,1-3.47,11.65,9.24,9.24,0,0,1-1.51,2,2.19,2.19,0,0,1-2.63.55,2,2,0,0,1-1-2.19A31.21,31.21,0,0,1,995,640a24.63,24.63,0,0,1,1.71-3,3.08,3.08,0,0,1,.79-.82,2.41,2.41,0,0,1,2.44-.37c.85.34.91,1.15,1,1.93C1000.88,638.09,1000.87,638.38,1000.87,638.67Z" transform="translate(-850.42 -417.2)"/><path class="cls-1" d="M1034.09,635.09h2.57a15.36,15.36,0,0,1-.64,2.09c-.09.2-.59.29-.9.3-1.81,0-1.79,0-2.3,1.81-1,3.37-2,6.73-2.93,10.11a7.7,7.7,0,0,0-.3,1.59c0,.24.12.68.26.72a1.22,1.22,0,0,0,1-.17,25.83,25.83,0,0,0,1.87-2c.41-.48.39-.5,1,0-1.26,2.13-2.75,4-5.34,4.55a5.79,5.79,0,0,1-1.81.06c-1.5-.17-2.37-1-2.15-2.5a59.4,59.4,0,0,1,1.47-6.41c.66-2.5,1.42-5,2.13-7.45,0,0,0-.07,0-.25h-2.51c0-1,.25-1.58,1.17-2a21.63,21.63,0,0,0,7.44-5.45,5,5,0,0,1,1.27-.7l.24.26C1035.1,631.43,1034.61,633.2,1034.09,635.09Z" transform="translate(-850.42 -417.2)"/><path class="cls-1" d="M1007.87,653.64c.63-2.51,1.23-4.92,1.82-7.33l1.74-7.06,0-.09c.45-1.95.17-2.37-2-2.71.2-.26.32-.58.49-.61,2.19-.47,4.38-.89,6.57-1.31a1.64,1.64,0,0,1,.51.06l-2.71,10.25.14.08c.32-.66.62-1.32,1-2,1.22-2.2,2.42-4.41,3.72-6.57a3.57,3.57,0,0,1,2.49-1.79,1.71,1.71,0,0,1,2.22,1.4,5.45,5.45,0,0,1-.85,4.38c-.8,1.15-1.92,1.08-2.7-.09s-1.07-1.09-1.93-.09a21.66,21.66,0,0,0-3.58,6.74c-.71,1.9-1.22,3.89-1.76,5.85-.17.62-.39.9-1.09.87C1010.67,653.59,1009.33,653.64,1007.87,653.64Z" transform="translate(-850.42 -417.2)"/></svg>